<?xml version="1.0" standalone="no"?>
<!DOCTYPE svg PUBLIC "-//W3C//DTD SVG 20010904//EN"
 "http://www.w3.org/TR/2001/REC-SVG-20010904/DTD/svg10.dtd">
<svg version="1.0" xmlns="http://www.w3.org/2000/svg"
 width="1280.000000pt" height="853.000000pt" viewBox="0 0 1280.000000 853.000000"
 preserveAspectRatio="xMidYMid meet">

<g transform="translate(0.000000,853.000000) scale(0.100000,-0.100000)"
fill="#000000" stroke="none">
<path d="M0 4265 l0 -4265 4241 2 4242 3 24 75 c13 41 28 79 32 85 5 5 12 31
15 57 4 26 11 50 17 53 5 4 7 10 4 15 -2 4 -1 21 4 36 5 16 21 70 35 119 79
272 147 476 237 704 49 124 94 234 99 243 13 23 13 125 0 133 -5 3 -17 -12
-26 -34 -9 -23 -19 -41 -24 -41 -4 0 -12 -10 -18 -22 -6 -13 -11 -17 -11 -9
-1 10 -5 10 -13 3 -7 -6 -40 -19 -72 -29 -38 -13 -60 -25 -62 -36 -1 -9 2 -17
8 -17 6 0 6 -6 -2 -15 -6 -8 -9 -22 -6 -32 3 -10 7 -29 10 -43 2 -14 7 -33 11
-42 5 -12 2 -20 -9 -24 -9 -3 -14 -10 -11 -14 3 -4 -2 -13 -10 -20 -8 -7 -15
-20 -15 -29 0 -9 -9 -29 -20 -46 -11 -16 -20 -38 -20 -47 0 -10 -7 -18 -15
-18 -8 0 -15 -7 -15 -15 0 -8 -7 -15 -15 -15 -8 0 -15 -9 -15 -20 0 -11 -4
-20 -9 -20 -5 0 -8 26 -7 58 3 67 -4 95 -15 66 -6 -16 -8 -14 -8 9 -1 19 3 26
11 21 7 -4 8 -3 4 4 -4 7 9 65 29 129 19 65 38 135 42 157 6 36 4 39 -13 31
-10 -4 -37 -11 -59 -14 -22 -4 -50 -13 -61 -19 -12 -6 -58 -12 -103 -13 -44
-1 -81 -5 -81 -10 0 -5 -9 -9 -20 -9 -11 0 -20 -5 -20 -11 0 -10 -39 -7 -72 6
-13 5 -16 0 -15 -26 2 -31 -1 -33 -47 -45 -53 -14 -70 -11 -103 19 -27 24 -30
58 -6 79 19 15 114 43 283 82 122 29 160 43 216 84 23 17 60 40 83 52 43 21
48 42 9 35 -12 -3 -40 0 -62 6 -42 11 -120 18 -276 24 -88 4 -99 2 -152 -24
-81 -40 -86 -42 -192 -57 -26 -4 -76 -22 -110 -40 -34 -18 -79 -36 -101 -40
-21 -4 -62 -17 -90 -29 -54 -25 -181 -40 -191 -24 -10 17 15 36 64 49 42 10
169 72 182 89 3 3 21 14 40 23 25 12 29 17 15 17 -11 0 -29 -6 -39 -14 -12 -9
-42 -15 -77 -15 -32 0 -69 -4 -83 -9 -21 -9 -63 -16 -151 -26 -30 -3 -45 5
-45 25 0 19 10 24 73 35 21 3 58 15 83 26 25 10 53 19 61 19 13 0 84 29 198
80 11 5 47 19 80 31 33 12 69 28 80 35 13 9 69 15 154 19 117 5 138 9 182 31
45 24 56 26 127 20 42 -3 150 -9 240 -12 154 -6 162 -8 162 -27 0 -27 143 255
181 358 17 44 44 106 60 138 33 66 34 67 16 67 -8 0 -22 -15 -32 -34 -11 -19
-23 -33 -27 -30 -5 3 -11 -8 -14 -25 -4 -17 -10 -31 -14 -31 -4 0 -11 -11 -14
-25 -4 -14 -11 -25 -16 -25 -6 0 -10 -6 -10 -13 0 -8 -11 -27 -24 -42 -14 -16
-23 -32 -20 -36 2 -4 -1 -11 -7 -14 -5 -4 -8 -13 -5 -21 3 -8 2 -14 -3 -14 -5
0 -12 -15 -16 -32 -4 -18 -9 -28 -12 -21 -7 19 64 221 114 320 25 51 68 118
94 150 46 56 149 239 149 265 0 7 -10 2 -21 -12 -26 -32 -14 -5 18 38 13 17
38 39 56 48 61 32 160 108 146 112 -26 8 -39 33 -28 53 19 35 80 11 65 -26 -8
-23 4 -19 82 30 40 25 80 45 89 45 15 0 136 64 271 143 29 17 51 36 49 42 -4
12 -240 7 -245 -5 -2 -5 -18 -6 -36 -3 -30 5 -33 2 -48 -34 -8 -22 -13 -54
-10 -71 3 -21 0 -32 -8 -32 -9 0 -11 19 -8 70 4 68 3 70 -20 70 -37 0 -25 40
16 54 25 9 30 14 21 23 -9 9 -7 11 8 7 12 -3 24 -1 27 5 10 16 26 14 26 -3 0
-11 16 -14 73 -13 63 1 137 -9 203 -29 18 -5 29 4 60 44 223 285 240 302 454
462 69 52 201 155 293 230 193 155 256 198 306 205 20 3 81 14 136 25 136 26
272 43 283 36 6 -3 37 -2 69 2 33 5 72 5 88 0 28 -7 52 0 28 9 -21 8 -14 49
12 74 16 16 25 35 25 55 0 18 18 83 39 145 58 169 67 203 86 324 11 69 29 140
50 190 18 44 54 132 80 195 93 222 128 404 105 535 -19 106 -49 213 -76 275
-14 30 -39 87 -56 125 -31 70 -66 123 -53 80 6 -18 5 -18 -5 -2 -6 9 -9 21 -6
26 3 4 -6 18 -19 29 -14 12 -25 27 -25 33 0 6 -7 8 -16 5 -8 -3 -13 -2 -10 3
6 10 -97 85 -131 95 -13 4 -41 23 -64 42 -45 37 -54 40 -63 22 -3 -7 -3 -2 0
11 5 18 0 29 -17 44 -21 16 -21 18 -4 13 12 -4 1 10 -25 33 -25 22 -48 40 -52
41 -4 0 -27 18 -52 39 -49 42 -55 45 -131 61 -111 24 -152 31 -194 35 -24 2
-48 10 -53 17 -5 8 -11 9 -15 3 -5 -5 -17 -12 -27 -13 -17 -3 -18 -2 -7 12 12
14 9 16 -20 15 -31 0 -95 -10 -144 -22 -12 -3 -48 -8 -80 -12 -70 -9 -64 5 10
24 84 21 80 34 -10 25 -44 -4 -91 -10 -105 -13 -14 -4 -38 -5 -55 -1 -17 3
-41 0 -55 -7 -14 -7 -33 -13 -43 -13 -9 0 -25 -4 -35 -9 -22 -13 -123 -40
-142 -39 -8 0 -23 -3 -32 -7 -12 -5 -18 -3 -18 6 0 10 -12 14 -37 13 -31 -1
-41 -6 -53 -30 -8 -16 -22 -34 -31 -41 -17 -13 -65 -61 -115 -115 -17 -18 -37
-51 -44 -73 -7 -22 -31 -62 -53 -90 -22 -27 -46 -64 -53 -82 -16 -38 -19 -87
-4 -78 6 3 10 1 10 -5 0 -6 5 -8 10 -5 6 3 10 1 10 -4 0 -6 -4 -11 -10 -11 -5
0 -23 -20 -40 -45 -17 -25 -42 -57 -55 -71 -14 -15 -22 -30 -20 -34 3 -5 -8
-14 -25 -22 -17 -7 -30 -20 -30 -31 0 -10 -4 -16 -9 -13 -5 4 -7 -3 -4 -13 4
-16 1 -19 -16 -14 -16 4 -21 1 -21 -13 -1 -19 -23 -56 -34 -55 -19 2 -24 -1
-29 -20 -3 -12 -10 -18 -15 -15 -6 3 -19 -10 -31 -30 -13 -21 -26 -32 -33 -28
-6 4 -8 3 -5 -3 4 -6 -2 -37 -13 -69 -64 -190 -71 -238 -45 -301 9 -20 24 -68
35 -107 10 -39 22 -81 26 -94 l7 -24 -964 6 c-530 4 -1000 9 -1044 11 -160 9
-1557 7 -1565 -1 -10 -10 -29 -207 -36 -379 -3 -60 -14 -240 -24 -398 -14
-225 -22 -293 -34 -312 -16 -25 -17 -25 -189 -26 -94 -1 -185 -3 -202 -4 -51
-5 -1489 -20 -1857 -20 l-347 0 -16 -34 c-9 -18 -20 -70 -26 -115 -13 -95 -32
-167 -53 -198 -21 -29 -20 -16 4 62 11 36 20 80 20 98 l0 33 -26 -28 -26 -28
7 25 c4 14 14 48 22 75 17 57 23 220 9 250 -8 18 -10 17 -16 -10 -8 -30 -8
-30 -9 8 0 20 -5 37 -9 37 -5 0 -6 28 -4 61 5 74 -13 75 -24 1 -3 -26 -10 -51
-14 -57 -4 -5 -11 -28 -15 -50 -4 -22 -18 -63 -31 -91 -13 -28 -24 -56 -24
-63 0 -7 -4 -10 -9 -7 -5 3 -12 -1 -15 -10 -3 -8 -11 -12 -17 -8 -7 4 -9 3 -6
-3 12 -19 -17 -81 -63 -135 -63 -73 -78 -88 -92 -88 -7 0 10 23 39 50 59 56
78 87 86 145 6 37 5 39 -9 20 -8 -11 -21 -28 -29 -38 -8 -9 -15 -25 -15 -35 0
-13 -2 -14 -9 -4 -6 10 -18 3 -45 -30 -52 -59 -80 -116 -67 -132 7 -8 7 -16 1
-22 -11 -11 -60 -253 -60 -295 0 -29 -45 -207 -55 -217 -4 -4 -4 4 -1 18 6 27
10 53 31 210 25 188 27 204 30 253 1 26 -2 50 -7 53 -13 9 -76 -43 -94 -77
-13 -25 -18 -28 -30 -18 -12 10 -20 7 -42 -13 -68 -63 -88 -78 -98 -78 -5 0
-20 -9 -32 -21 -12 -11 -27 -17 -32 -14 -6 3 -10 2 -10 -2 0 -18 -111 -64
-240 -101 l-133 -37 89 -5 c49 -3 101 -3 115 1 18 5 33 1 50 -12 29 -23 45
-24 53 -4 8 21 38 19 64 -5 23 -21 42 -26 42 -11 0 6 -5 13 -10 16 -8 5 -7 11
1 21 6 7 15 12 19 9 5 -3 11 -1 14 4 3 5 23 7 43 4 21 -2 46 -5 56 -6 14 -1
16 -7 11 -37 -10 -55 -22 -80 -38 -80 -17 0 -39 -34 -28 -44 3 -4 2 -10 -3
-14 -21 -15 -31 -48 -24 -80 3 -18 3 -35 -2 -38 -14 -8 -10 -31 7 -38 8 -3 12
-2 9 4 -3 6 -1 10 6 10 6 0 9 -8 6 -20 -4 -14 0 -20 11 -21 14 0 13 -2 -3 -9
-18 -8 -18 -9 -2 -9 10 -1 16 -5 12 -10 -3 -5 3 -12 12 -14 10 -3 2 -5 -17 -5
-19 -1 -53 6 -75 14 -131 51 -182 64 -252 64 -75 0 -289 -37 -403 -70 -36 -10
-119 -28 -185 -40 -66 -11 -137 -24 -157 -29 -21 -4 -35 -5 -33 0 3 4 0 11 -5
14 -8 5 -6 13 6 26 9 10 21 16 25 13 5 -3 6 2 3 10 -4 11 0 16 10 16 9 0 15 3
15 8 -3 19 2 25 11 12 8 -12 10 -12 10 -1 0 17 30 40 53 41 9 0 17 5 17 12 0
6 3 9 6 5 4 -3 13 1 22 9 14 14 16 14 24 0 13 -24 42 -21 35 3 -4 16 1 20 27
23 25 2 31 7 29 26 -2 12 2 22 8 22 6 0 9 9 6 20 -6 25 62 100 123 135 63 35
43 31 -110 -20 -74 -25 -136 -41 -138 -36 -2 6 -9 8 -17 5 -7 -3 -15 -1 -18 4
-6 8 81 57 96 54 4 -1 7 2 7 7 0 5 16 15 35 22 34 13 47 29 23 29 -7 0 45 29
116 65 71 36 131 64 133 62 3 -4 37 4 211 47 130 33 284 132 369 240 92 115
185 269 198 325 4 17 11 34 17 38 8 4 9 0 4 -13 -4 -10 -16 -44 -26 -75 -10
-31 -32 -84 -49 -117 -30 -59 -41 -94 -21 -62 9 13 10 13 10 0 0 -8 7 -1 16
15 52 97 152 441 134 459 -6 6 -12 2 -16 -10 -20 -60 -96 -204 -104 -199 -6 3
-10 1 -10 -5 0 -25 -126 -184 -232 -293 -111 -113 -221 -198 -330 -253 -83
-42 -157 -42 -92 1 14 9 33 23 42 31 9 9 44 32 77 53 72 45 211 161 194 161
-7 0 -44 -23 -82 -51 -38 -28 -86 -58 -106 -67 -20 -9 -49 -25 -64 -35 -16
-11 -30 -17 -33 -15 -2 3 22 22 53 44 31 21 73 54 92 73 20 19 61 52 91 74 64
46 120 107 113 123 -2 7 4 18 15 25 11 8 20 17 20 22 1 4 18 33 38 64 20 32
32 59 26 61 -5 1 -8 12 -5 22 8 31 -5 24 -23 -12 -9 -18 -20 -35 -23 -38 -4
-3 -17 -22 -30 -42 -12 -21 -27 -38 -33 -38 -6 0 -2 12 8 28 33 49 104 177
104 186 0 5 -11 -8 -25 -28 -14 -20 -25 -41 -25 -46 0 -6 -4 -10 -10 -10 -5 0
-10 -7 -10 -15 0 -8 -4 -15 -10 -15 -14 0 -13 5 16 62 39 78 55 126 42 130 -8
3 -6 20 5 55 9 28 19 75 22 104 3 30 8 69 11 87 3 20 1 32 -4 28 -6 -3 -8 20
-6 57 4 58 3 61 -12 42 -8 -11 -18 -32 -21 -48 -8 -38 -25 -46 -22 -11 1 16 1
40 0 54 -3 24 -3 24 -13 -5 -6 -16 -17 -39 -25 -50 -12 -18 -13 -11 -9 55 3
48 2 68 -4 55 -5 -11 -9 -30 -9 -41 -1 -12 -7 -27 -15 -33 -11 -10 -15 -8 -19
6 -4 15 -5 15 -6 2 0 -9 -9 -19 -20 -22 -10 -2 -33 -33 -52 -70 -18 -37 -35
-65 -37 -63 -2 2 8 34 23 70 34 86 66 196 56 196 -10 0 -31 -46 -31 -65 0 -8
-4 -15 -10 -15 -13 0 -13 21 1 74 6 24 9 54 7 67 -2 18 -9 7 -26 -41 -12 -36
-29 -78 -37 -93 -8 -16 -15 -34 -15 -40 -1 -16 -39 -65 -41 -52 -5 34 -4 74 2
103 8 39 -11 44 -36 10 -16 -22 -16 -22 -9 16 5 28 4 37 -5 32 -7 -5 -11 1
-11 14 0 12 5 18 10 15 6 -3 10 -1 10 4 0 6 -4 11 -10 11 -5 0 -10 9 -10 20 0
33 -34 24 -46 -12 -27 -76 -53 -142 -54 -132 0 7 7 46 16 88 8 42 14 86 12 98
-3 17 -6 13 -12 -17 -4 -22 -16 -52 -26 -66 -10 -15 -22 -43 -25 -63 -4 -20
-11 -36 -15 -36 -4 0 -10 -13 -13 -30 -4 -16 -12 -30 -18 -30 -7 0 -8 7 -4 18
4 9 9 40 11 67 1 28 7 79 13 115 14 87 14 152 0 127 -6 -10 -12 -36 -14 -58
-4 -40 -31 -96 -42 -85 -3 3 0 13 7 22 12 13 11 17 0 24 -8 5 -18 6 -24 3 -5
-4 -6 11 -2 38 4 24 13 91 21 149 8 58 19 114 24 125 14 30 34 136 27 142 -9
9 -12 3 -39 -67 -13 -36 -28 -65 -33 -65 -18 0 -33 -16 -28 -30 7 -18 -14 -57
-28 -49 -5 4 -14 0 -19 -7 -4 -7 -11 -10 -15 -6 -4 4 -2 13 4 19 17 17 15 27
-5 24 -16 -3 -30 -33 -119 -266 -19 -50 -17 -17 5 97 11 54 22 121 26 148 4
28 13 72 21 99 8 27 14 54 14 60 0 12 -48 -68 -89 -150 -14 -28 -31 -49 -38
-47 -6 2 -14 -1 -18 -6 -3 -6 -13 -11 -22 -11 -9 0 -22 -8 -30 -17 -13 -16
-14 -15 -10 15 7 57 -9 44 -26 -21 -35 -138 -43 -162 -55 -160 -6 2 -14 -12
-17 -30 -23 -137 -23 -137 -24 -27 -1 72 -4 100 -11 90 -5 -8 -10 -25 -10 -37
0 -12 -4 -24 -9 -27 -12 -8 -5 191 8 263 16 81 -1 96 -27 24 -34 -93 -52 -153
-52 -168 0 -8 -4 -15 -9 -15 -5 0 -12 -19 -16 -42 -14 -79 -22 -15 -13 97 6
74 6 111 -1 113 -15 5 -4 205 15 271 8 29 17 65 19 80 2 14 6 35 10 46 5 14 0
11 -19 -10 -14 -16 -25 -35 -26 -41 0 -6 -9 -19 -20 -29 -20 -18 -20 -18 -4
31 56 172 214 391 339 471 22 14 42 29 45 32 22 26 146 64 208 63 59 0 74 -8
52 -23 -11 -8 -8 -9 15 -6 40 7 91 -3 74 -14 -11 -6 -10 -9 4 -15 16 -6 16 -7
2 -18 -19 -13 -10 -47 10 -40 7 3 16 16 19 30 6 22 21 29 53 25 7 -1 19 12 28
29 l16 30 35 -26 c34 -26 35 -26 49 -8 12 17 12 21 -2 31 -29 23 -5 26 59 9
35 -10 79 -21 98 -26 62 -17 107 -13 113 10 3 12 -1 23 -10 29 -11 6 -14 16
-9 35 5 20 23 34 74 60 37 18 85 39 107 46 22 7 44 15 50 18 17 10 -49 30 -82
25 -28 -5 -33 -3 -33 15 0 15 -7 22 -27 24 -41 4 -44 48 -6 77 47 35 53 41 53
55 0 18 -37 9 -61 -15 -10 -10 -31 -22 -46 -25 -22 -6 -31 -1 -57 29 -17 19
-47 42 -66 50 l-35 15 28 11 c16 6 34 11 42 11 7 0 12 8 10 18 -2 9 -4 22 -4
29 -1 6 -14 16 -30 21 -37 13 -57 47 -40 68 6 8 29 17 50 20 23 4 39 12 39 20
0 7 11 21 25 30 14 9 28 26 31 38 7 31 45 31 104 1 40 -20 50 -22 50 -10 0 8
7 15 15 15 8 0 15 9 15 20 0 21 -33 60 -50 60 -5 0 -10 9 -10 20 0 11 4 20 9
20 5 0 41 15 80 33 67 30 71 34 57 52 -13 18 -15 18 -77 1 -121 -35 -129 -38
-145 -53 -8 -8 -17 -13 -20 -10 -6 6 41 103 61 127 7 8 15 30 19 49 6 31 4 33
-17 26 -12 -3 -39 -10 -60 -15 -35 -7 -40 -5 -62 25 -14 17 -28 47 -31 66 -4
19 -11 39 -15 45 -5 6 -6 14 -2 17 3 4 0 7 -7 7 -7 0 -18 7 -24 15 -6 9 -26
16 -43 18 -26 2 -34 7 -38 29 -5 19 -14 28 -34 33 -16 3 -42 21 -58 40 l-30
34 54 7 c32 4 58 3 62 -3 3 -5 27 -10 54 -12 26 -1 62 -7 80 -12 41 -12 40
-12 34 11 -3 11 -1 18 4 14 14 -8 11 12 -3 24 -7 5 -30 15 -50 23 -20 7 -35
17 -32 21 7 11 88 0 132 -18 35 -14 40 -11 16 13 -8 9 -13 21 -10 28 5 13 -78
45 -118 45 -11 0 -27 4 -34 9 -17 10 41 40 96 48 41 7 66 27 75 60 5 22 2 23
-61 24 -139 2 -158 0 -215 -25 -32 -14 -61 -26 -66 -26 -5 0 -12 17 -16 38 -4
20 -11 43 -17 49 -5 7 -13 44 -17 83 l-6 70 -30 -16 c-28 -14 -57 -14 -96 1
-11 4 -22 -3 -33 -20 -17 -26 -17 -28 3 -49 16 -17 18 -25 9 -34 -8 -8 -11
-39 -9 -88 l2 -76 -43 30 c-61 42 -84 48 -98 22 -6 -12 -16 -18 -23 -14 -7 4
6 -10 28 -31 32 -31 37 -39 24 -44 -12 -4 -16 -16 -14 -38 4 -49 -14 -57 -71
-29 -27 13 -66 29 -87 36 -36 11 -39 10 -62 -15 -14 -14 -25 -30 -25 -34 0
-22 -35 -32 -117 -35 -52 -1 -98 -8 -113 -16 -14 -8 -29 -13 -34 -12 -5 2 -12
-2 -16 -8 -5 -8 -9 -4 -12 8 -4 13 -2 19 6 16 6 -2 20 3 31 11 20 16 20 16 0
12 -11 -2 -30 7 -42 20 -23 24 -53 31 -53 13 0 -5 -7 -10 -15 -10 -8 0 -15 -8
-15 -19 0 -10 -9 -21 -20 -24 -11 -3 -20 -12 -20 -21 0 -9 -4 -16 -10 -16 -5
0 -9 16 -8 35 1 20 5 32 11 28 6 -3 7 -1 3 5 -9 14 24 90 52 118 11 12 30 41
42 65 12 24 24 45 25 47 6 7 54 -11 49 -19 -11 -18 22 -8 39 12 22 25 15 51
-21 85 -46 42 -132 54 -132 18 0 -8 -10 -14 -21 -14 -17 0 -19 3 -10 14 9 11
6 15 -14 18 -17 4 -25 1 -25 -9 0 -8 4 -12 8 -9 4 2 8 -4 8 -14 0 -11 -2 -17
-5 -14 -2 2 -15 -3 -29 -12 -13 -8 -26 -13 -30 -10 -3 3 1 6 9 6 12 0 11 2 -1
10 -12 8 -11 11 8 16 13 4 19 10 14 13 -5 3 -12 16 -16 28 -6 18 -4 20 14 16
11 -3 20 0 20 6 0 6 7 11 15 11 8 0 15 -6 15 -12 0 -9 22 -13 80 -13 43 1 82
4 86 8 4 4 0 7 -9 7 -10 0 -17 5 -17 11 0 5 4 7 10 4 5 -3 22 1 37 10 l28 15
-37 -6 c-25 -4 -38 -2 -38 5 0 6 5 11 11 11 5 0 7 5 4 10 -4 6 5 10 21 10 22
0 25 2 14 15 -10 13 -9 15 9 15 12 0 21 -6 21 -15 0 -8 7 -15 15 -15 8 0 15 7
15 15 0 9 9 15 25 15 14 0 25 -4 25 -10 0 -18 18 -11 23 9 4 16 -2 21 -24 26
-16 4 -29 10 -29 15 0 14 33 35 51 32 9 -2 20 2 24 8 5 8 11 8 21 -1 11 -9 16
-6 24 16 11 28 37 30 32 1 -2 -11 4 -16 18 -16 16 0 20 5 16 18 -3 9 -1 24 4
32 7 11 10 5 11 -25 2 -37 2 -38 6 -7 4 30 16 42 26 25 2 -5 2 -2 0 5 -4 16
24 45 46 49 8 1 21 9 27 17 6 9 24 16 39 16 18 0 28 6 32 20 7 26 23 26 23 -1
0 -15 4 -19 16 -15 9 3 18 6 20 6 2 0 4 7 4 15 0 7 7 18 17 23 10 6 14 16 10
26 -4 11 -3 15 4 11 6 -4 17 1 24 11 13 17 14 17 15 2 0 -12 12 -19 38 -24 20
-3 47 -12 59 -20 32 -20 61 -17 68 7 5 15 10 17 20 9 9 -8 15 -8 20 0 11 18
24 11 27 -17 2 -18 9 -28 21 -29 12 -1 13 -1 2 3 -8 2 -15 16 -15 31 0 26 2
27 45 24 38 -3 45 -1 46 14 0 15 2 16 7 4 14 -30 92 -15 92 17 0 8 8 13 17 11
10 -2 19 5 21 15 3 16 0 18 -19 12 -21 -7 -22 -6 -7 9 9 9 21 16 27 16 6 0 11
8 11 18 1 16 1 16 11 0 6 -11 22 -18 39 -18 22 0 32 7 44 30 12 24 12 30 1 30
-7 0 -16 -6 -18 -12 -4 -10 -6 -10 -6 0 -1 9 -255 12 -1236 12 l-1235 0 0
-4265z m2319 4196 c8 -14 7 -22 -4 -31 -9 -8 -15 -8 -15 -2 0 6 5 12 11 14 8
3 6 10 -5 21 -10 9 -13 17 -7 17 6 0 15 -9 20 -19z m-144 -29 c-3 -3 -11 0
-18 7 -9 10 -8 11 6 5 10 -3 15 -9 12 -12z m-161 -56 c-3 -8 -12 -12 -20 -9
-17 6 -9 23 11 23 8 0 12 -6 9 -14z m-164 -10 c0 -3 -4 -8 -10 -11 -5 -3 -10
-1 -10 4 0 6 5 11 10 11 6 0 10 -2 10 -4z m-210 -111 c0 -8 -4 -15 -10 -15 -5
0 -10 7 -10 15 0 8 5 15 10 15 6 0 10 -7 10 -15z m-155 -35 c3 -5 -1 -10 -10
-10 -9 0 -13 5 -10 10 3 6 8 10 10 10 2 0 7 -4 10 -10z m35 -30 c0 -5 -4 -10
-10 -10 -5 0 -10 5 -10 10 0 6 5 10 10 10 6 0 10 -4 10 -10z m-245 -164 c-8
-62 -20 -73 -27 -23 -3 17 -7 39 -10 47 -3 8 -3 12 -1 8 10 -17 33 -7 33 14 0
12 3 19 6 16 3 -4 3 -31 -1 -62z m-57 -17 c3 -18 -29 -22 -40 -5 -13 20 -9 27
14 24 13 -2 24 -10 26 -19z m-174 -44 c-4 -8 -1 -15 5 -15 6 0 11 -4 11 -10 0
-5 -4 -10 -9 -10 -12 0 -23 29 -15 41 9 14 14 10 8 -6z m-44 -25 c0 -5 -2 -10
-4 -10 -3 0 -8 5 -11 10 -3 6 -1 10 4 10 6 0 11 -4 11 -10z m-25 -29 c-6 -5
-25 10 -25 20 0 5 6 4 14 -3 8 -7 12 -15 11 -17z m-594 -35 c5 -6 9 -24 9 -40
0 -17 4 -26 8 -20 4 6 17 14 30 18 21 7 27 -1 23 -26 0 -5 6 -8 14 -8 8 0 15
5 15 10 0 6 12 9 28 9 26 -2 26 -2 2 -6 -24 -5 -23 -5 9 -19 43 -18 61 -17 37
1 -19 15 -19 15 2 15 12 0 22 5 22 11 0 8 4 9 13 0 8 -6 17 -8 20 -5 4 4 23
-10 44 -30 34 -33 36 -38 21 -47 -10 -6 -18 -18 -17 -27 0 -14 2 -14 6 -2 14
36 53 32 53 -6 0 -13 6 -29 14 -36 11 -11 6 -20 -31 -55 -24 -24 -42 -46 -40
-50 2 -5 7 -16 10 -26 6 -16 10 -16 56 8 28 14 55 25 61 25 21 0 9 -16 -20
-27 -38 -14 -52 -60 -25 -80 15 -10 91 -19 127 -15 3 1 8 -5 11 -12 4 -10 -1
-12 -16 -9 -20 4 -20 3 -4 -7 18 -12 23 -36 8 -42 -12 -4 -16 -111 -6 -163 l8
-40 -54 49 c-99 88 -107 97 -130 142 -13 24 -30 44 -37 44 -17 0 -52 -59 -52
-89 0 -13 16 -45 36 -72 19 -27 33 -52 30 -57 -8 -13 -186 -7 -234 8 -28 9
-47 22 -52 35 -5 12 -10 174 -13 361 -2 186 -2 328 0 314 3 -14 9 -29 14 -34z
m304 44 c3 -5 1 -10 -4 -10 -6 0 -11 5 -11 10 0 6 2 10 4 10 3 0 8 -4 11 -10z
m245 -10 c0 -5 -4 -10 -9 -10 -6 0 -13 5 -16 10 -3 6 1 10 9 10 9 0 16 -4 16
-10z m-493 -16 c-3 -3 -12 -4 -19 -1 -8 3 -5 6 6 6 11 1 17 -2 13 -5z m1571
-6 c14 -14 16 -58 3 -58 -5 0 -11 8 -14 18 -2 9 -8 25 -12 35 -8 20 5 23 23 5z
m-1318 -8 c0 -5 -2 -10 -4 -10 -3 0 -8 5 -11 10 -3 6 -1 10 4 10 6 0 11 -4 11
-10z m30 -5 c0 -8 -4 -15 -10 -15 -5 0 -7 7 -4 15 4 8 8 15 10 15 2 0 4 -7 4
-15z m215 5 c3 -5 1 -10 -4 -10 -6 0 -11 5 -11 10 0 6 2 10 4 10 3 0 8 -4 11
-10z m-198 -47 c-3 -10 -5 -4 -5 12 0 17 2 24 5 18 2 -7 2 -21 0 -30z m38 -3
c3 -5 1 -10 -4 -10 -6 0 -11 5 -11 10 0 6 2 10 4 10 3 0 8 -4 11 -10z m229 1
c3 -5 -5 -11 -19 -13 -26 -5 -35 6 -12 15 19 8 25 8 31 -2z m-60 -17 c5 -14 4
-15 -9 -4 -17 14 -19 20 -6 20 5 0 12 -7 15 -16z m297 -287 c-10 -9 -11 -8 -5
6 3 10 9 15 12 12 3 -3 0 -11 -7 -18z m348 -6 l24 -19 -22 -28 c-13 -16 -26
-29 -29 -29 -4 0 -6 -2 -6 -5 1 -3 4 -20 8 -38 l6 -33 -73 7 c-39 3 -90 9
-112 13 l-39 6 24 23 c27 26 64 44 125 65 22 8 44 23 50 35 12 26 13 27 44 3z
m-562 -335 c-3 -8 -3 -17 1 -21 4 -4 7 -18 7 -31 1 -17 -3 -23 -13 -19 -7 3
-20 5 -28 5 -20 0 -17 21 9 52 25 31 32 35 24 14z m-612 -6 c-3 -5 -10 -10
-16 -10 -5 0 -9 5 -9 10 0 6 7 10 16 10 8 0 12 -4 9 -10z m38 -47 c16 -10 5
-21 -25 -26 -33 -4 -48 5 -48 31 0 10 9 12 33 7 17 -4 35 -9 40 -12z m177 -92
c0 -4 -8 -19 -19 -32 -34 -44 -62 -110 -56 -130 8 -25 20 -24 72 6 52 31 55
25 9 -20 -30 -29 -41 -52 -37 -77 0 -4 27 4 58 17 53 24 215 75 236 75 5 0 -9
-20 -32 -45 -32 -35 -41 -53 -39 -73 3 -28 15 -31 52 -16 18 7 18 5 -3 -24
-20 -28 -52 -48 -36 -22 11 17 -5 11 -41 -16 -19 -15 -34 -35 -34 -44 0 -36
-47 -60 -118 -60 -54 0 -63 -2 -53 -14 9 -11 8 -15 -4 -20 -26 -9 -9 -24 38
-31 52 -9 60 -14 49 -28 -5 -7 -12 -25 -16 -41 l-7 -28 75 7 c64 6 78 4 92
-10 16 -16 16 -20 0 -71 -9 -29 -25 -59 -35 -66 -10 -7 -21 -23 -25 -34 -5
-18 0 -26 30 -45 l36 -22 -26 -14 c-21 -11 -26 -20 -24 -41 2 -22 9 -28 38
-33 31 -6 33 -7 13 -14 -15 -5 -23 -15 -23 -31 0 -13 -1 -27 -1 -31 -1 -5 14
-12 32 -18 47 -14 65 -27 73 -52 6 -20 5 -21 -31 -13 -21 5 -79 12 -128 15
-50 3 -98 8 -107 11 -9 3 -26 -4 -38 -16 -19 -19 -19 -21 -3 -27 10 -3 64 -28
121 -54 80 -37 102 -52 102 -68 0 -11 -8 -26 -18 -33 -24 -16 -42 -51 -42 -77
0 -16 6 -21 26 -21 14 0 23 -4 19 -10 -3 -5 -21 -10 -39 -10 -25 0 -41 -9 -67
-37 -19 -21 -43 -38 -54 -37 -11 0 -30 -3 -41 -7 -14 -5 -29 -2 -43 7 -17 13
-21 25 -21 75 0 61 -13 76 -40 44 -7 -8 -16 -12 -21 -9 -34 21 -47 152 -65
684 -3 102 -7 199 -9 215 -2 17 -7 123 -11 236 l-7 206 89 15 c105 18 154 21
154 9z m9602 -346 c-2 -14 -8 -25 -13 -25 -12 0 -11 7 1 31 14 26 18 24 12 -6z
m1158 -35 c13 -9 13 -11 0 -19 -17 -12 -30 -5 -30 15 0 16 9 18 30 4z m-270
-17 c0 -11 -22 -43 -29 -43 -14 0 -23 33 -11 40 12 7 40 9 40 3z m27 -35 c-3
-7 -5 -2 -5 12 0 14 2 19 5 13 2 -7 2 -19 0 -25z m63 -13 c0 3 9 1 20 -5 12
-6 17 -16 13 -26 -5 -13 -7 -13 -14 -2 -7 10 -9 9 -9 -4 0 -11 -6 -15 -20 -11
-12 3 -19 11 -17 17 2 6 0 19 -5 29 -8 16 -7 17 11 7 12 -6 21 -8 21 -5z m-42
-34 c0 -17 5 -39 11 -50 6 -11 11 -28 11 -38 -1 -25 -40 55 -40 82 0 18 7 35
15 35 1 0 2 -13 3 -29z m331 -16 l0 -20 -9 20 c-5 11 -9 27 -9 35 -1 13 0 13
9 0 5 -8 9 -24 9 -35z m-225 0 c3 -8 1 -15 -4 -15 -6 0 -10 7 -10 15 0 8 2 15
4 15 2 0 6 -7 10 -15z m-126 -50 c-3 -3 -9 2 -12 12 -6 14 -5 15 5 6 7 -7 10
-15 7 -18z m87 -105 c3 -5 1 -10 -4 -10 -6 0 -11 5 -11 10 0 6 2 10 4 10 3 0
8 -4 11 -10z m-200 -20 c3 -5 11 -10 16 -10 6 0 7 5 4 11 -4 6 9 0 28 -13 23
-15 32 -25 24 -30 -17 -11 -37 -10 -37 3 0 5 5 7 12 3 7 -4 8 -3 4 4 -4 7 -18
12 -30 12 -13 0 -29 7 -36 15 -8 9 -9 15 -2 15 6 0 14 -4 17 -10z m125 -26 c0
-8 8 -14 18 -14 14 0 15 2 2 10 -13 8 -12 10 3 10 9 0 17 -5 17 -11 0 -6 7 -9
15 -6 8 4 17 2 20 -4 4 -5 10 -7 15 -4 16 10 21 -29 5 -44 -10 -10 -15 -11
-15 -3 0 7 6 12 13 13 6 0 -13 8 -43 18 -30 10 -58 17 -62 14 -5 -2 -8 2 -8
11 0 8 -5 16 -12 18 -6 2 -8 10 -4 17 10 15 36 -4 36 -25z m170 -60 c0 -2 -11
2 -25 8 -14 6 -25 15 -25 20 0 5 11 1 25 -8 14 -9 25 -18 25 -20z m-157 -20
c11 -11 -3 -24 -18 -18 -8 4 -12 10 -9 15 6 11 18 12 27 3z m164 -20 c-3 -3
-12 -4 -19 -1 -8 3 -5 6 6 6 11 1 17 -2 13 -5z m-1684 -269 c-3 -9 -8 -14 -10
-11 -3 3 -2 9 2 15 9 16 15 13 8 -4z m-53 -35 c0 -5 -5 -10 -11 -10 -5 0 -7 5
-4 10 3 6 8 10 11 10 2 0 4 -4 4 -10z m525 -679 c37 -21 84 -95 90 -140 2 -18
8 -38 13 -44 14 -20 13 -65 -3 -71 -10 -4 -16 5 -20 32 -4 20 -18 61 -31 90
-13 29 -24 56 -24 61 0 11 -52 56 -86 75 l-29 15 30 0 c17 0 44 -8 60 -18z
m-1621 -31 c613 -6 952 -13 956 -19 3 -6 19 -9 35 -8 l29 2 1 -75 c0 -41 -8
-122 -19 -180 -18 -97 -18 -116 -6 -255 17 -209 18 -231 8 -400 -5 -82 -10
-238 -12 -345 -4 -186 -3 -196 17 -217 15 -17 32 -23 65 -23 l44 0 -21 36
c-26 44 -28 76 -3 73 9 -1 25 -1 36 0 15 1 16 4 6 16 -17 20 -31 19 -23 -2 4
-13 3 -15 -6 -7 -11 10 -17 30 -28 85 -3 15 0 37 7 49 7 13 12 52 11 88 0 38
4 71 12 81 6 8 8 12 2 9 -6 -4 -11 13 -13 40 -2 26 -7 51 -13 56 -5 6 -9 23
-9 40 0 28 1 29 15 10 8 -10 15 -30 15 -42 0 -13 14 -58 32 -100 17 -43 35
-106 39 -142 22 -190 50 -259 124 -307 27 -18 62 -33 78 -33 15 0 44 -7 63
-15 33 -13 34 -16 20 -30 -9 -9 -25 -47 -37 -86 -11 -38 -23 -69 -25 -69 -3 0
-9 11 -14 25 -12 31 -22 32 -35 3 -7 -15 -18 -22 -30 -20 -19 2 -18 1 3 -14
39 -29 21 -69 -28 -61 -22 4 -41 17 -36 26 3 4 -8 18 -25 30 -40 30 -32 36 17
12 21 -11 41 -18 43 -16 4 5 -70 98 -106 134 -28 27 -34 24 -35 -18 -1 -20 6
-37 18 -46 23 -17 12 -18 -38 -5 -35 10 -54 32 -43 51 7 11 -82 102 -96 97
-12 -4 -15 -45 -24 -308 -3 -102 -8 -193 -11 -203 -6 -20 12 -20 -369 3 -88 5
-286 12 -440 15 -154 3 -341 7 -415 10 -372 15 -797 36 -900 44 -63 5 -142 10
-175 10 -33 1 -87 6 -120 11 -33 5 -111 10 -174 10 -112 0 -332 17 -361 28 -8
3 -26 7 -40 9 -14 2 -29 9 -35 16 -5 7 -38 26 -73 42 -41 20 -64 37 -68 52 -3
11 -14 23 -25 26 -11 3 -19 14 -19 26 0 17 3 19 18 12 103 -55 285 -92 352
-72 53 16 248 31 410 31 284 0 163 16 -246 32 -269 11 -420 20 -429 28 -10 8
-12 42 -9 153 2 78 1 136 -2 130 -8 -19 -49 -16 -94 7 -22 11 -46 20 -55 20
-8 0 -15 4 -15 8 0 4 -17 14 -37 21 -21 8 -51 23 -66 33 -16 11 -30 19 -32 17
-3 -4 -15 -1218 -15 -1502 0 -84 -3 -106 -12 -101 -10 6 -10 5 -1 -7 14 -17
15 -66 5 -295 -7 -176 -12 -196 -53 -209 -10 -4 -19 -13 -19 -20 0 -29 -40
-35 -234 -35 -161 0 -196 -2 -196 -14 0 -8 33 -43 72 -79 40 -36 71 -68 68
-70 -3 -3 -35 7 -70 23 -128 56 -223 58 -352 5 -97 -40 -95 -40 -80 -24 14 15
16 71 3 115 -5 17 -29 52 -55 79 -31 33 -46 58 -46 76 0 33 -18 48 -66 56 -37
6 -37 6 -30 -23 4 -16 13 -36 20 -44 20 -23 8 -40 -28 -40 -39 0 -68 20 -73
49 -2 18 2 21 28 21 27 0 30 3 24 23 -8 28 -42 57 -65 57 -12 0 -22 12 -30 35
-6 19 -15 33 -20 30 -14 -9 -17 17 -12 96 3 49 1 79 -6 83 -6 3 -30 2 -54 -3
-51 -12 -75 2 -44 25 26 18 51 17 -357 18 -356 2 -366 3 -367 39 0 4 199 7
443 6 243 0 450 2 459 6 10 4 20 14 23 24 8 25 58 51 86 44 13 -3 38 -16 54
-28 17 -12 48 -26 70 -30 73 -13 286 -17 582 -10 257 6 292 9 298 24 4 9 6
365 6 791 -1 737 -2 776 -20 800 l-18 25 -1159 2 c-767 2 -1169 -1 -1190 -7
-17 -6 -39 -8 -48 -4 -16 6 -16 8 1 26 10 11 28 24 41 29 13 5 537 12 1164 15
l1141 5 3 32 c1 17 7 33 13 35 7 2 8 10 2 20 -9 17 -6 313 3 432 3 36 7 101 8
145 3 85 11 110 34 101 16 -6 19 10 4 19 -10 6 -14 65 -4 65 3 0 20 -11 38
-25 41 -31 67 -34 41 -5 -10 12 -32 29 -49 40 -17 10 -39 33 -49 50 -18 29
-18 41 -7 198 9 117 16 170 26 178 15 12 897 10 2528 -6z m-6744 0 c0 -5 -2
-10 -4 -10 -3 0 -8 5 -11 10 -3 6 -1 10 4 10 6 0 11 -4 11 -10z m8544 -238
c18 -48 8 -76 -27 -79 -15 -1 -18 4 -13 20 3 12 6 44 6 72 0 55 9 51 34 -13z
m61 -2 c3 -5 1 -10 -4 -10 -6 0 -11 5 -11 10 0 6 2 10 4 10 3 0 8 -4 11 -10z
m-22 -42 c3 -21 2 -38 -2 -38 -10 0 -21 61 -14 73 7 12 9 7 16 -35z m77 -30
c0 -3 -9 -4 -20 -1 -20 5 -26 23 -13 36 6 6 32 -21 33 -35z m-169 -91 c-8 -8
-11 -7 -11 4 0 20 13 34 18 19 3 -7 -1 -17 -7 -23z m-9724 -109 c-3 -8 -6 -5
-6 6 -1 11 2 17 5 13 3 -3 4 -12 1 -19z m77 -128 c13 0 24 -32 25 -70 0 -28 7
-45 26 -67 17 -20 21 -21 46 -7 32 16 67 18 89 4 12 -8 9 -10 -12 -10 -18 0
-28 -5 -28 -15 0 -8 -6 -12 -14 -9 -13 5 -14 -4 -3 -60 2 -11 12 -23 23 -27
16 -6 14 -8 -9 -8 -16 -1 -26 -5 -22 -11 3 -5 0 -10 -9 -10 -28 0 -6 -75 25
-83 10 -3 19 -9 19 -15 0 -11 -45 -20 -146 -28 -69 -6 -71 -6 -78 17 -4 13 -9
110 -13 216 l-6 192 24 -6 c22 -6 23 -5 9 13 -15 18 -14 18 12 1 15 -9 34 -17
42 -17z m9631 -20 c3 -5 12 -7 20 -3 9 3 15 -1 15 -11 0 -9 7 -16 16 -16 8 0
12 -4 9 -10 -3 -5 2 -32 11 -58 16 -46 17 -53 2 -98 -11 -35 -13 -56 -6 -74 5
-13 6 -21 2 -17 -4 4 -13 -2 -21 -13 -15 -21 -48 -27 -58 -10 -4 6 -15 8 -26
5 -11 -4 -19 -2 -19 4 0 6 -3 10 -7 10 -21 -3 -29 3 -30 22 -1 12 -10 27 -20
34 -14 11 -16 18 -7 32 8 12 8 23 1 34 -8 12 -5 25 11 51 12 20 22 45 22 58 0
41 68 88 85 60z m395 -400 c0 -5 -5 -10 -11 -10 -5 0 -7 5 -4 10 3 6 8 10 11
10 2 0 4 -4 4 -10z m-8020 -30 c-6 -11 -13 -20 -16 -20 -2 0 0 9 6 20 6 11 13
20 16 20 2 0 0 -9 -6 -20z m8047 4 c-3 -3 -12 -4 -19 -1 -8 3 -5 6 6 6 11 1
17 -2 13 -5z m-5590 -20 c-3 -3 -12 -4 -19 -1 -8 3 -5 6 6 6 11 1 17 -2 13 -5z
m730 -41 c-3 -10 -5 -2 -5 17 0 19 2 27 5 18 2 -10 2 -26 0 -35z m4853 43 c0
-3 -4 -8 -10 -11 -5 -3 -10 -1 -10 4 0 6 5 11 10 11 6 0 10 -2 10 -4z m-36
-15 c3 -5 -3 -11 -15 -14 -16 -4 -18 -3 -8 9 13 16 16 17 23 5z m82 -16 c-3
-9 0 -15 9 -15 8 0 15 -4 15 -10 0 -13 -23 -13 -37 1 -9 9 -8 15 0 25 16 18
20 17 13 -1z m44 5 c0 -5 -5 -10 -11 -10 -5 0 -7 5 -4 10 3 6 8 10 11 10 2 0
4 -4 4 -10z m-8179 -27 c-12 -20 -14 -14 -5 12 4 9 9 14 11 11 3 -2 0 -13 -6
-23z m8065 2 c-3 -9 0 -15 9 -15 7 0 16 -4 19 -9 9 -14 -19 -7 -38 9 -14 10
-14 15 -4 21 18 12 21 11 14 -6z m-4846 -35 c0 -5 -2 -10 -4 -10 -3 0 -8 5
-11 10 -3 6 -1 10 4 10 6 0 11 -4 11 -10z m4863 -27 c-3 -7 -11 -13 -19 -13
-7 0 -11 6 -8 13 3 8 11 14 18 14 8 0 12 -6 9 -14z m-4866 -35 c-3 -7 -5 -2
-5 12 0 14 2 19 5 13 2 -7 2 -19 0 -25z m-3298 -30 c-35 -51 -64 -83 -77 -85
-17 -4 -15 1 16 34 15 16 37 41 49 56 32 37 39 34 12 -5z m372 9 c-10 -9 -11
-8 -5 6 3 10 9 15 12 12 3 -3 0 -11 -7 -18z m1079 -161 c252 7 1969 8 1983 2
16 -8 17 -33 17 -311 0 -257 -2 -306 -15 -325 -13 -17 -14 -26 -4 -44 8 -14
14 -89 17 -198 5 -192 4 -195 -52 -202 -44 -5 -43 -25 3 -68 l41 -39 0 -120
c0 -137 10 -124 -102 -136 -105 -12 -1955 -7 -1977 4 -11 6 -28 11 -38 11 -10
1 -29 11 -43 23 -34 29 -81 93 -74 100 3 3 -8 12 -24 21 -16 8 -33 23 -37 33
-9 22 -6 296 6 658 5 149 9 338 8 420 -1 118 2 153 13 163 15 12 153 20 203
12 17 -3 50 -4 75 -4z m6094 -193 c-10 -3 -11 -114 0 -132 4 -6 1 -11 -8 -11
-10 0 -13 -6 -10 -15 9 -23 -33 -19 -46 4 -15 29 -12 73 6 112 24 49 34 59 52
52 9 -4 12 -8 6 -10z m76 -55 c0 -4 -7 -5 -15 -2 -8 4 -15 16 -15 28 1 21 1
21 15 2 8 -11 15 -23 15 -28z m-465 -114 c35 -23 31 -31 -15 -36 -38 -3 -40
-2 -40 24 0 32 18 36 55 12z m-8165 -154 c-20 -13 -33 -13 -25 0 3 6 14 10 23
10 15 0 15 -2 2 -10z m180 6 c0 -2 -8 -10 -17 -17 -16 -13 -17 -12 -4 4 13 16
21 21 21 13z m-100 -36 c-14 -10 -59 -38 -100 -61 -41 -24 -98 -62 -126 -85
-28 -23 -71 -53 -96 -65 -30 -14 -44 -27 -41 -36 4 -10 -8 -13 -48 -13 -30 0
-64 -3 -75 -6 -17 -4 -22 0 -26 20 -3 15 -1 26 6 27 7 0 6 3 -2 6 -6 2 -10 9
-6 14 3 5 1 9 -4 9 -6 0 -12 7 -16 15 -4 12 0 14 19 9 26 -6 33 4 14 23 -13
13 24 28 42 17 7 -4 9 -3 6 3 -7 11 27 26 50 24 6 -1 14 3 18 9 8 13 101 13
126 0 13 -7 19 -7 19 0 0 5 9 10 20 10 19 0 61 17 115 47 39 22 110 53 120 53
6 0 -1 -9 -15 -20z m-190 -21 c0 -11 -59 -29 -94 -29 l-31 0 35 19 c33 19 90
25 90 10z m1257 -31 c-3 -8 -6 -5 -6 6 -1 11 2 17 5 13 3 -3 4 -12 1 -19z
m-1564 -35 c-7 -2 -19 -2 -25 0 -7 3 -2 5 12 5 14 0 19 -2 13 -5z m6605 -26
c12 -24 11 -31 -2 -53 -29 -43 -116 -23 -116 28 0 58 93 78 118 25z m-6669
-84 c17 -10 31 -21 31 -24 0 -10 -40 -19 -84 -19 -37 0 -39 1 -20 15 10 8 15
15 11 15 -9 0 15 29 25 30 3 0 20 -8 37 -17z m2176 -561 c-3 -3 -11 0 -18 7
-9 10 -8 11 6 5 10 -3 15 -9 12 -12z m-315 -16 c0 -3 -4 -8 -10 -11 -5 -3 -10
-1 -10 4 0 6 5 11 10 11 6 0 10 -2 10 -4z m1776 -376 c15 0 19 -25 5 -34 -9
-6 -32 37 -30 57 1 7 3 4 6 -5 2 -10 11 -18 19 -18z m-486 11 c0 -6 -4 -13
-10 -16 -5 -3 -10 1 -10 9 0 9 5 16 10 16 6 0 10 -4 10 -9z m160 -1 c0 -5 -4
-10 -10 -10 -5 0 -10 5 -10 10 0 6 5 10 10 10 6 0 10 -4 10 -10z m160 1 c0 -6
-4 -13 -10 -16 -5 -3 -10 1 -10 9 0 9 5 16 10 16 6 0 10 -4 10 -9z m123 -81
c13 0 44 -14 71 -30 33 -21 54 -28 71 -24 68 17 87 -33 30 -79 -28 -22 -39
-26 -54 -17 -11 5 -21 13 -23 18 -1 4 -28 20 -59 36 -43 21 -64 26 -88 21 -39
-8 -40 -27 -5 -79 24 -35 25 -40 10 -48 -9 -5 -16 -16 -16 -25 0 -19 -28 -53
-44 -53 -6 1 -20 20 -31 43 -18 35 -29 45 -70 59 -44 14 -51 20 -56 50 -3 18
-9 43 -13 56 -7 22 -6 22 87 22 91 0 94 1 105 25 7 14 12 33 12 42 0 14 2 14
25 -1 13 -9 35 -16 48 -16z m50 -279 c15 -2 6 -18 -15 -28 -26 -11 -57 -11
-76 1 -24 15 6 35 46 31 20 -2 40 -4 45 -4z m3924 -753 c-3 -7 -5 -2 -5 12 0
14 2 19 5 13 2 -7 2 -19 0 -25z"/>
<path d="M380 7784 c0 -8 5 -12 10 -9 6 4 8 11 5 16 -9 14 -15 11 -15 -7z"/>
<path d="M600 7785 c0 -8 7 -15 15 -15 8 0 15 7 15 15 0 8 -7 15 -15 15 -8 0
-15 -7 -15 -15z"/>
<path d="M645 7760 c3 -5 11 -10 16 -10 6 0 7 5 4 10 -3 6 -11 10 -16 10 -6 0
-7 -4 -4 -10z"/>
<path d="M630 7730 c-9 -6 -10 -10 -3 -10 6 0 15 5 18 10 8 12 4 12 -15 0z"/>
<path d="M848 7403 c7 -3 16 -2 19 1 4 3 -2 6 -13 5 -11 0 -14 -3 -6 -6z"/>
<path d="M9685 3760 c3 -5 8 -10 11 -10 2 0 4 5 4 10 0 6 -5 10 -11 10 -5 0
-7 -4 -4 -10z"/>
<path d="M9615 3550 c3 -5 11 -10 16 -10 6 0 7 5 4 10 -3 6 -11 10 -16 10 -6
0 -7 -4 -4 -10z"/>
<path d="M7233 3423 c9 -2 25 -2 35 0 9 3 1 5 -18 5 -19 0 -27 -2 -17 -5z"/>
<path d="M7330 3424 c25 -2 122 -8 215 -14 94 -6 193 -13 220 -15 28 -3 77 -1
110 3 60 8 59 8 -50 15 -116 7 -572 18 -495 11z"/>
<path d="M5414 2198 c-4 -6 -24 -8 -45 -5 -22 3 -39 1 -39 -3 0 -5 12 -10 28
-12 21 -2 33 -14 51 -49 23 -44 24 -48 8 -64 -10 -9 -15 -21 -12 -26 10 -15
47 -10 67 7 17 16 19 15 41 -7 13 -13 26 -31 30 -40 5 -15 32 -18 118 -10 4 1
9 10 12 21 4 18 14 20 74 20 37 0 73 4 79 8 15 10 27 141 15 156 -7 8 -29 11
-63 8 -61 -5 -74 -5 -146 1 -28 3 -55 1 -58 -4 -6 -11 -48 -12 -58 -2 -10 11
-96 11 -102 1z m176 -108 c0 -5 -5 -10 -11 -10 -5 0 -7 5 -4 10 3 6 8 10 11
10 2 0 4 -4 4 -10z"/>
<path d="M5232 2193 c-31 -6 -25 -33 11 -53 27 -14 29 -14 53 15 13 17 24 33
24 38 0 7 -48 8 -88 0z"/>
<path d="M5407 2004 c-13 -14 6 -24 43 -24 41 0 61 14 34 24 -21 8 -69 8 -77
0z"/>
<path d="M5715 2000 c-8 -13 -10 -12 53 -16 40 -2 52 0 52 12 0 10 -13 14 -49
14 -28 0 -53 -4 -56 -10z"/>
<path d="M10227 4349 c-17 -10 -24 -39 -9 -39 8 0 35 40 30 45 -2 2 -11 -1
-21 -6z"/>
<path d="M10160 4321 c0 -11 5 -23 10 -26 6 -3 10 3 10 14 0 11 -4 23 -10 26
-5 3 -10 -3 -10 -14z"/>
<path d="M3687 3534 c-4 -4 -7 -14 -7 -23 0 -11 3 -12 11 -4 6 6 10 16 7 23
-2 6 -7 8 -11 4z"/>
<path d="M4187 3353 c5 -64 -12 -95 -59 -106 -38 -9 -58 -34 -34 -43 8 -3 39
1 71 10 31 8 64 12 72 9 22 -9 33 15 33 73 0 33 5 56 15 64 32 27 17 40 -44
40 l-58 0 4 -47z"/>
<path d="M4404 3190 c-5 -5 -8 -26 -6 -45 3 -26 9 -35 23 -35 16 0 19 8 19 45
0 45 -13 58 -36 35z"/>
<path d="M4535 2999 c-16 -5 -42 -7 -57 -5 -37 7 -94 -4 -77 -15 15 -9 167 -2
219 11 28 6 30 8 10 9 -14 1 -34 3 -45 6 -11 2 -33 -1 -50 -6z"/>
<path d="M3983 2992 c-29 -2 -53 -6 -53 -10 0 -4 55 -6 123 -5 67 1 130 2 140
3 10 0 16 4 12 10 -5 9 -98 10 -222 2z"/>
<path d="M4270 2991 c0 -6 4 -12 9 -15 13 -9 71 5 65 15 -7 12 -74 11 -74 0z"/>
<path d="M3930 2890 c0 -5 5 -10 10 -10 6 0 10 -6 10 -14 0 -7 9 -16 21 -19
12 -3 18 -10 14 -16 -4 -7 4 -11 20 -11 l26 0 -30 33 c-17 17 -31 35 -31 40 0
4 -9 7 -20 7 -11 0 -20 -4 -20 -10z"/>
<path d="M5800 2621 c0 -52 8 -62 30 -36 10 12 10 21 0 45 -20 48 -30 45 -30
-9z"/>
<path d="M2532 8518 c-15 -15 -16 -48 -2 -48 6 0 10 9 10 20 0 27 29 25 39 -2
8 -22 9 -22 17 -4 13 32 -39 59 -64 34z"/>
<path d="M2600 8520 c0 -5 4 -10 9 -10 6 0 13 5 16 10 3 6 -1 10 -9 10 -9 0
-16 -4 -16 -10z"/>
<path d="M2680 8519 c0 -6 7 -8 16 -5 8 3 25 1 37 -5 20 -11 20 -12 2 -25 -18
-13 -17 -14 8 -14 18 0 27 5 27 15 0 9 8 19 18 23 12 4 6 8 -23 14 -59 10 -85
9 -85 -3z"/>
<path d="M2836 8515 c-3 -8 -1 -15 4 -15 6 0 10 7 10 15 0 8 -2 15 -4 15 -2 0
-6 -7 -10 -15z"/>
<path d="M5281 8492 c-10 -30 -11 -44 -2 -61 11 -19 13 -20 35 -6 12 8 26 12
30 8 4 -4 9 3 13 15 5 20 7 21 18 6 14 -20 35 -11 35 15 0 10 7 24 16 32 13
11 15 9 12 -17 -3 -25 0 -29 20 -26 15 2 22 -2 22 -13 0 -11 7 -15 23 -13 31
5 47 16 57 43 6 17 14 21 32 18 15 -3 30 3 42 16 l19 21 -161 0 c-148 0 -162
-2 -162 -17 0 -10 -5 -25 -11 -33 -8 -12 -9 -8 -7 14 4 44 -17 42 -31 -2z"/>
<path d="M5663 8514 c-8 -21 2 -49 16 -46 7 1 19 -2 26 -8 10 -8 19 -8 34 -1
12 6 29 15 39 20 9 4 27 5 39 0 15 -6 29 -2 46 12 14 10 32 19 40 19 9 0 19 5
22 11 5 7 -35 9 -125 8 -97 -1 -133 -5 -137 -15z"/>
<path d="M5960 8523 c0 -5 5 -15 10 -23 8 -12 10 -11 10 8 0 12 -4 22 -10 22
-5 0 -10 -3 -10 -7z"/>
<path d="M10411 8514 c0 -11 3 -14 6 -6 3 7 2 16 -1 19 -3 4 -6 -2 -5 -13z"/>
<path d="M10440 8514 c0 -8 5 -12 10 -9 6 4 8 11 5 16 -9 14 -15 11 -15 -7z"/>
<path d="M10476 8522 c-4 -7 17 -10 89 -11 57 -1 85 2 85 11 0 9 -168 9 -174
0z"/>
<path d="M10656 8514 c-10 -27 -7 -37 8 -25 11 10 15 8 19 -6 3 -15 5 -14 14
6 l10 25 7 -27 c3 -16 11 -25 16 -22 6 4 8 11 5 16 -4 5 10 9 29 9 20 0 36 -4
36 -10 0 -5 7 -10 15 -10 8 0 15 -4 15 -10 0 -5 5 -10 12 -10 9 0 9 3 0 12
-20 20 -14 38 12 38 13 0 27 6 29 13 3 7 6 5 6 -5 1 -10 12 -20 26 -24 31 -8
32 -21 3 -26 -21 -3 -21 -4 4 -9 15 -4 26 -3 24 0 -8 13 21 27 52 25 17 -1 32
2 32 7 0 21 20 7 27 -18 l7 -28 7 25 c4 16 7 19 8 8 1 -19 41 -26 41 -8 0 6
-4 10 -10 10 -5 0 -7 7 -3 16 4 11 8 12 13 4 5 -7 16 -9 30 -5 18 6 21 4 18
-12 -2 -10 -10 -17 -16 -15 -7 1 -12 -3 -12 -9 0 -7 11 -9 29 -6 23 5 30 2 38
-16 12 -26 63 -36 63 -12 0 8 -4 15 -10 15 -5 0 -10 5 -10 10 0 19 22 10 27
-11 3 -11 9 -16 12 -11 3 5 25 11 48 14 37 5 42 3 46 -16 4 -19 4 -19 6 3 1
20 3 21 16 11 13 -10 15 -9 15 9 0 11 4 21 10 21 5 0 7 -7 4 -15 -10 -26 6
-38 27 -19 17 15 19 15 25 0 7 -17 34 -22 34 -6 0 6 9 10 21 10 16 0 19 4 14
23 -6 18 -5 20 6 10 18 -18 27 -16 32 5 4 15 5 15 6 0 0 -9 -6 -24 -15 -32
-14 -14 -11 -20 8 -18 3 1 12 -5 18 -13 14 -17 40 -20 40 -5 0 6 -4 10 -10 10
-5 0 -10 5 -10 11 0 7 9 9 24 5 15 -4 26 -1 29 7 4 7 6 6 6 -4 1 -9 8 -22 16
-29 11 -10 18 -9 30 4 19 18 25 19 43 7 10 -6 8 -10 -10 -15 -14 -5 -18 -9
-10 -13 6 -2 10 -8 8 -12 -3 -4 9 -5 26 -3 21 3 33 0 40 -12 14 -25 51 -19 70
12 l17 27 1 -32 c0 -29 4 -33 43 -45 l42 -12 -35 -5 -35 -4 30 -6 c20 -4 31
-14 36 -31 4 -16 7 -18 8 -8 2 27 44 18 58 -12 8 -19 12 -20 12 -7 1 9 8 17
18 17 9 0 13 -3 9 -7 -4 -4 8 -15 26 -25 26 -13 29 -17 13 -18 -20 -1 -20 -1
-1 -15 16 -12 17 -17 5 -31 -12 -15 -12 -16 9 -10 13 5 22 3 22 -3 0 -6 7 -11
16 -11 13 0 14 3 5 14 -7 8 -8 17 -3 20 9 5 42 -28 42 -43 0 -5 6 -12 13 -15
10 -5 10 -7 0 -12 -25 -11 -13 -26 17 -21 16 4 32 2 36 -4 3 -6 13 -8 21 -5
11 4 13 1 8 -14 -5 -15 -2 -20 10 -20 12 0 15 -5 11 -16 -4 -9 -2 -22 4 -29 9
-11 17 -10 40 2 17 8 30 20 31 26 1 7 4 1 8 -13 4 -15 3 -28 -3 -32 -6 -4 20
-8 58 -8 73 0 81 -8 19 -20 l-38 -8 33 -1 c25 -1 32 -5 32 -21 0 -11 5 -20 10
-20 6 0 10 11 10 24 0 19 4 23 20 19 23 -6 27 -23 5 -23 -18 0 -20 -17 -4 -22
9 -3 9 -10 0 -26 -14 -26 -5 -29 21 -5 16 14 18 15 18 0 0 -9 -4 -19 -10 -22
-15 -9 -12 -25 5 -25 8 0 15 5 15 10 0 6 5 10 11 10 7 0 9 -10 5 -25 -7 -27
11 -34 32 -13 9 9 12 7 12 -11 0 -14 4 -20 11 -15 6 3 15 0 20 -7 7 -11 11
-11 17 -2 5 8 13 9 22 3 40 -25 40 -25 40 380 l0 390 -1069 0 c-951 -1 -1070
-3 -1075 -16z m721 -60 c-3 -3 -12 -4 -19 -1 -8 3 -5 6 6 6 11 1 17 -2 13 -5z
m153 -4 c0 -5 -5 -10 -11 -10 -5 0 -7 5 -4 10 3 6 8 10 11 10 2 0 4 -4 4 -10z
m-300 -10 c0 -5 -4 -10 -10 -10 -5 0 -10 5 -10 10 0 6 5 10 10 10 6 0 10 -4
10 -10z m660 -50 c0 -5 -4 -10 -10 -10 -5 0 -10 5 -10 10 0 6 5 10 10 10 6 0
10 -4 10 -10z m-30 -32 c0 -19 -16 -5 -17 14 -2 18 0 20 7 8 5 -8 10 -18 10
-22z m644 -373 c-4 -8 -10 -15 -15 -15 -5 0 -9 7 -9 15 0 8 7 15 15 15 9 0 12
-6 9 -15z"/>
<path d="M10480 8490 c0 -5 9 -10 19 -10 11 0 23 5 26 10 4 6 -5 10 -19 10
-14 0 -26 -4 -26 -10z"/>
<path d="M10610 8490 c0 -5 7 -10 15 -10 8 0 15 5 15 10 0 6 -7 10 -15 10 -8
0 -15 -4 -15 -10z"/>
<path d="M10760 8470 c0 -5 7 -10 16 -10 8 0 12 5 9 10 -3 6 -10 10 -16 10 -5
0 -9 -4 -9 -10z"/>
<path d="M2440 8440 c0 -5 5 -10 10 -10 6 0 10 5 10 10 0 6 -4 10 -10 10 -5 0
-10 -4 -10 -10z"/>
<path d="M11020 8440 c0 -5 5 -10 10 -10 6 0 10 5 10 10 0 6 -4 10 -10 10 -5
0 -10 -4 -10 -10z"/>
<path d="M2370 8391 c0 -5 7 -11 15 -15 9 -3 15 0 15 9 0 8 -7 15 -15 15 -8 0
-15 -4 -15 -9z"/>
<path d="M1900 8362 c0 -16 13 -20 35 -11 11 4 15 8 8 8 -6 1 -18 4 -27 7 -9
3 -16 1 -16 -4z"/>
<path d="M2198 8353 c7 -3 16 -2 19 1 4 3 -2 6 -13 5 -11 0 -14 -3 -6 -6z"/>
<path d="M2245 8350 c3 -5 12 -7 20 -3 21 7 19 13 -6 13 -11 0 -18 -4 -14 -10z"/>
<path d="M1870 8316 c0 -9 5 -16 10 -16 6 0 10 4 10 9 0 6 -4 13 -10 16 -5 3
-10 -1 -10 -9z"/>
<path d="M1915 8320 c-6 -10 15 -50 27 -50 5 0 8 6 8 13 0 9 3 8 9 -2 6 -8 14
-10 22 -5 10 6 2 12 -26 20 -22 7 -34 13 -27 13 6 1 12 6 12 11 0 13 -17 13
-25 0z"/>
<path d="M1755 8270 c-8 -13 4 -32 16 -25 12 8 12 35 0 35 -6 0 -13 -4 -16
-10z"/>
<path d="M1778 8213 c7 -3 16 -2 19 1 4 3 -2 6 -13 5 -11 0 -14 -3 -6 -6z"/>
<path d="M1455 8130 l-30 -8 32 -1 c17 0 35 4 38 9 7 11 3 11 -40 0z"/>
<path d="M12212 8118 c-6 -6 -12 -19 -12 -27 0 -13 2 -13 16 1 9 9 15 21 13
27 -3 9 -8 8 -17 -1z"/>
<path d="M5707 8084 c-9 -10 2 -24 19 -24 8 0 14 7 14 15 0 15 -21 21 -33 9z"/>
<path d="M12310 8042 c0 -7 -7 -12 -16 -12 -8 0 -12 -5 -8 -11 4 -7 11 -6 22
5 9 8 13 19 9 22 -4 4 -7 2 -7 -4z"/>
<path d="M1393 8006 c-12 -38 -5 -48 13 -18 6 9 8 25 5 36 -6 14 -9 11 -18
-18z"/>
<path d="M1310 7946 c0 -9 5 -16 10 -16 6 0 10 4 10 9 0 6 -4 13 -10 16 -5 3
-10 -1 -10 -9z"/>
<path d="M12450 7900 c0 -5 5 -10 10 -10 6 0 10 5 10 10 0 6 -4 10 -10 10 -5
0 -10 -4 -10 -10z"/>
<path d="M12500 7900 c0 -5 7 -10 15 -10 8 0 15 5 15 10 0 6 -7 10 -15 10 -8
0 -15 -4 -15 -10z"/>
<path d="M1240 7809 c0 -5 5 -7 10 -4 6 3 10 8 10 11 0 2 -4 4 -10 4 -5 0 -10
-5 -10 -11z"/>
<path d="M12655 7760 c3 -5 8 -10 11 -10 2 0 4 5 4 10 0 6 -5 10 -11 10 -5 0
-7 -4 -4 -10z"/>
<path d="M12748 7733 c7 -3 16 -2 19 1 4 3 -2 6 -13 5 -11 0 -14 -3 -6 -6z"/>
<path d="M1241 7714 c0 -11 3 -14 6 -6 3 7 2 16 -1 19 -3 4 -6 -2 -5 -13z"/>
<path d="M12786 7721 c-4 -7 -5 -15 -2 -18 9 -9 19 4 14 18 -4 11 -6 11 -12 0z"/>
<path d="M1240 7666 c0 -4 7 -14 15 -22 8 -9 15 -11 15 -6 0 5 -7 15 -15 22
-8 7 -15 9 -15 6z"/>
<path d="M2466 7641 c-3 -5 1 -11 9 -15 8 -3 15 -1 15 4 0 13 -18 22 -24 11z"/>
<path d="M1935 6040 c-10 -11 -23 -20 -29 -20 -12 -1 -66 -74 -66 -90 0 -6 -4
-10 -10 -10 -18 0 -61 -89 -65 -134 -5 -50 0 -56 22 -28 10 12 16 14 19 5 3
-7 10 -13 15 -13 17 0 51 83 54 136 3 54 3 54 -16 31 -10 -12 -18 -18 -19 -14
0 16 28 63 51 82 l23 20 -17 -27 c-31 -49 -3 -30 32 22 35 51 39 76 6 40z"/>
<path d="M2282 6023 c14 -34 28 -51 28 -36 0 22 -19 63 -30 63 -6 0 -5 -10 2
-27z"/>
<path d="M1930 5831 c-6 -12 -7 -21 -1 -21 10 0 24 30 17 37 -2 3 -9 -5 -16
-16z"/>
<path d="M1884 5745 c-41 -94 -28 -102 20 -11 28 54 31 66 15 66 -5 0 -21 -25
-35 -55z"/>
<path d="M1952 5722 c-7 -14 -8 -30 -3 -35 4 -4 11 6 15 24 8 41 4 45 -12 11z"/>
<path d="M1287 5723 c-4 -3 -7 -11 -7 -17 0 -6 5 -5 12 2 6 6 9 14 7 17 -3 3
-9 2 -12 -2z"/>
<path d="M2210 5655 c0 -8 4 -15 10 -15 5 0 7 7 4 15 -4 8 -8 15 -10 15 -2 0
-4 -7 -4 -15z"/>
<path d="M1937 5546 c-4 -10 -7 -25 -6 -34 0 -11 4 -9 10 7 5 13 8 29 6 35 -2
5 -6 2 -10 -8z"/>
<path d="M3339 5145 c-3 -2 -29 -7 -59 -10 -64 -6 -73 -13 -68 -51 2 -20 8
-28 18 -25 8 2 59 6 112 9 97 4 98 4 107 -20 12 -32 -3 -155 -26 -218 -17 -46
-97 -140 -120 -140 -13 0 -17 -12 -7 -22 9 -9 66 22 102 56 56 52 86 127 102
254 5 35 16 72 25 82 9 10 15 29 13 42 -2 18 -13 26 -48 35 -45 11 -143 17
-151 8z"/>
<path d="M2981 5066 c-8 -9 -11 -19 -7 -23 9 -9 29 13 24 27 -2 8 -8 7 -17 -4z"/>
<path d="M2061 5054 c0 -11 3 -14 6 -6 3 7 2 16 -1 19 -3 4 -6 -2 -5 -13z"/>
<path d="M3032 5043 c-17 -44 -24 -73 -18 -73 7 0 46 76 46 90 0 20 -18 9 -28
-17z"/>
<path d="M2161 5044 c0 -11 3 -14 6 -6 3 7 2 16 -1 19 -3 4 -6 -2 -5 -13z"/>
<path d="M3202 4903 c3 -47 28 -76 28 -32 0 12 8 28 18 35 16 13 16 14 -5 20
-13 3 -23 10 -23 15 0 5 -5 9 -11 9 -6 0 -9 -19 -7 -47z"/>
<path d="M2375 4920 c3 -5 8 -10 11 -10 2 0 4 5 4 10 0 6 -5 10 -11 10 -5 0
-7 -4 -4 -10z"/>
<path d="M2913 4818 c-14 -19 -41 -89 -74 -193 -33 -104 -41 -225 -14 -225 9
0 15 9 15 24 0 13 6 26 13 29 21 8 57 113 57 164 0 41 -2 44 -16 32 -15 -12
-16 -10 -9 21 4 19 16 62 26 95 19 61 19 75 2 53z"/>
<path d="M3200 4768 c0 -13 -5 -30 -10 -38 -8 -12 -10 -12 -10 5 -1 16 -2 17
-9 5 -26 -45 -22 -231 4 -267 13 -17 15 -17 33 5 15 17 19 33 16 58 -3 24 0
34 10 34 22 0 27 28 16 91 -11 57 -36 129 -45 129 -3 0 -5 -10 -5 -22z m-3
-120 c-3 -8 -6 -5 -6 6 -1 11 2 17 5 13 3 -3 4 -12 1 -19z"/>
<path d="M3063 4704 c-31 -72 -45 -133 -38 -162 3 -13 8 -22 11 -20 8 9 55
209 51 221 -1 5 -13 -12 -24 -39z"/>
<path d="M2970 4470 c-19 -34 -110 -219 -110 -226 0 -2 -25 -56 -55 -119 -64
-133 -70 -163 -25 -120 40 38 156 214 186 282 21 46 24 68 22 132 -3 72 -4 75
-18 51z"/>
<path d="M3102 4470 c0 -14 2 -19 5 -12 2 6 2 18 0 25 -3 6 -5 1 -5 -13z"/>
<path d="M2486 4304 c-4 -10 -1 -14 6 -12 15 5 23 28 10 28 -5 0 -13 -7 -16
-16z"/>
<path d="M12220 4289 c-168 -4 -358 -8 -422 -10 l-116 -2 40 -41 c22 -23 58
-72 81 -111 22 -38 62 -105 90 -147 l49 -78 53 0 c74 0 272 -27 326 -44 24 -8
87 -31 139 -52 81 -32 111 -39 200 -44 58 -4 113 -10 123 -14 16 -8 17 9 17
273 l0 280 -137 -1 c-76 -1 -275 -5 -443 -9z"/>
<path d="M2446 4193 c-6 -14 -5 -15 5 -6 7 7 10 15 7 18 -3 3 -9 -2 -12 -12z"/>
<path d="M2460 4115 c-13 -14 -19 -25 -13 -25 6 0 18 11 27 25 9 14 15 25 13
25 -2 0 -14 -11 -27 -25z"/>
<path d="M2395 4050 c-16 -17 -26 -30 -22 -30 10 0 61 50 55 55 -2 3 -17 -9
-33 -25z"/>
<path d="M2347 4003 c-4 -3 -7 -11 -7 -17 0 -6 5 -5 12 2 6 6 9 14 7 17 -3 3
-9 2 -12 -2z"/>
<path d="M2555 3924 c-84 -117 -213 -217 -368 -283 -42 -19 -76 -36 -73 -38 2
-2 37 7 77 21 78 27 106 29 39 2 -45 -18 -54 -29 -12 -16 141 43 235 104 303
196 21 29 39 55 39 58 0 2 -24 -19 -52 -48 -29 -28 -39 -36 -22 -16 36 41 96
125 113 158 22 42 -4 22 -44 -34z m-160 -204 c-3 -5 -16 -15 -28 -21 -22 -12
-22 -12 -3 10 19 21 43 30 31 11z"/>
<path d="M1368 3053 c7 -3 16 -2 19 1 4 3 -2 6 -13 5 -11 0 -14 -3 -6 -6z"/>
<path d="M11058 2634 c51 -56 99 -107 107 -114 9 -7 46 -52 82 -99 86 -112 91
-117 57 -51 -20 37 -79 105 -183 210 -121 122 -135 134 -63 54z"/>
<path d="M9300 2620 c14 -4 36 -8 50 -8 l25 0 -25 8 c-14 4 -36 8 -50 8 l-25
0 25 -8z"/>
<path d="M12617 2389 c-278 -78 -451 -196 -624 -423 -88 -116 -175 -310 -192
-430 -5 -36 -12 -70 -16 -76 -9 -14 -32 -12 -38 3 -3 8 -26 20 -52 27 -26 7
-49 19 -52 27 -3 7 -9 13 -15 13 -5 0 -6 -5 -3 -10 3 -6 0 -13 -9 -16 -8 -3
-12 -12 -9 -20 10 -27 -7 -81 -30 -92 -16 -8 -17 -11 -6 -11 20 -1 17 -44 -4
-66 -20 -19 -27 -19 -27 0 0 8 -4 15 -10 15 -5 0 -10 -9 -10 -20 0 -11 -4 -20
-10 -20 -16 0 -12 37 5 44 21 8 19 26 -2 26 -44 1 -65 29 -65 87 0 13 -4 21
-8 18 -4 -3 -13 2 -20 10 -11 14 -15 13 -27 -5 -8 -11 -18 -18 -22 -16 -4 3
-24 -21 -44 -53 -21 -32 -48 -67 -62 -79 -13 -12 -22 -28 -19 -36 3 -8 -3 -20
-13 -27 -23 -17 -37 -47 -34 -73 2 -10 -6 -28 -16 -40 -11 -11 -26 -40 -33
-64 -7 -23 -19 -47 -27 -53 -7 -6 -13 -21 -13 -33 0 -12 -7 -31 -15 -42 -8
-10 -15 -26 -15 -35 0 -9 -7 -30 -15 -45 -8 -16 -15 -37 -15 -46 0 -9 -5 -20
-10 -23 -6 -4 -8 -11 -5 -16 4 -5 1 -9 -5 -9 -6 0 -9 -3 -6 -8 2 -4 -4 -25
-14 -47 -11 -22 -19 -46 -20 -52 0 -7 -4 -13 -9 -13 -5 0 -13 -14 -16 -32 -7
-31 -24 -68 -36 -78 -3 -3 -14 -20 -24 -37 -11 -18 -23 -33 -27 -33 -4 0 -8
-6 -8 -13 0 -7 -11 -24 -25 -39 -13 -14 -27 -38 -31 -52 -5 -21 -9 -24 -25
-15 -15 7 -19 6 -19 -5 0 -14 -67 -76 -82 -76 -15 0 -48 -35 -48 -50 0 -14
-17 -27 -93 -74 -16 -10 -38 -34 -50 -53 l-21 -36 -23 29 c-12 16 -18 31 -12
32 6 3 6 8 1 15 -5 7 -12 23 -16 37 -3 14 -13 50 -21 80 -14 49 -32 266 -50
575 -6 102 -21 196 -25 160 -1 -11 -2 -29 -1 -40 2 -17 0 -18 -9 -5 -9 12 -10
7 -6 -21 5 -26 3 -38 -7 -42 -13 -5 -28 -92 -57 -337 -6 -47 -15 -121 -21
-165 -5 -45 -8 -148 -7 -230 l3 -150 1288 -3 1287 -2 0 1074 c0 1015 -1 1075
-17 1079 -17 4 -17 5 0 6 15 1 17 15 17 136 0 161 19 151 -183 94z m-831
-1258 c-8 -163 -17 -215 -41 -225 -8 -3 -15 -12 -15 -20 0 -8 -11 -23 -25 -34
-14 -11 -25 -24 -25 -28 -1 -20 -176 -201 -202 -210 -9 -3 -20 -14 -23 -25 -4
-10 -10 -19 -16 -19 -10 0 -35 -20 -83 -65 -17 -16 -41 -37 -53 -45 -109 -78
-118 -83 -99 -59 11 13 82 85 157 160 192 190 301 361 324 509 1 8 5 26 9 40
3 14 8 57 10 96 4 83 9 94 42 94 13 0 24 6 24 13 0 6 5 4 11 -7 8 -12 9 -69 5
-175z m-849 -904 c0 -9 -11 -13 -28 -12 -25 2 -28 -1 -23 -21 4 -16 0 -25 -15
-34 -12 -6 -19 -16 -15 -22 4 -6 -1 -8 -15 -3 -15 4 -21 2 -21 -8 0 -16 -27
-30 -41 -21 -5 3 -9 -2 -9 -10 0 -9 -7 -16 -15 -16 -9 0 -18 -7 -22 -16 -5
-13 -7 -13 -14 -2 -8 11 -11 11 -18 -1 -5 -8 -19 -12 -35 -9 -17 4 -29 0 -35
-10 -5 -8 -14 -12 -20 -8 -9 6 -9 11 -1 21 9 11 7 12 -12 7 -20 -5 -18 -2 10
26 18 18 37 32 42 32 6 0 10 4 10 8 0 4 17 14 38 21 20 8 56 22 79 33 23 11
47 16 54 12 7 -4 9 -3 6 3 -7 12 40 36 54 28 5 -4 17 -1 26 4 10 6 18 11 19
11 0 0 1 -6 1 -13z"/>
<path d="M10860 180 c-9 -6 -10 -10 -3 -10 6 0 15 5 18 10 8 12 4 12 -15 0z"/>
<path d="M11545 1340 c3 -5 11 -10 16 -10 6 0 7 5 4 10 -3 6 -11 10 -16 10 -6
0 -7 -4 -4 -10z"/>
</g>
</svg>
