<?xml version="1.0" standalone="no"?>
<!DOCTYPE svg PUBLIC "-//W3C//DTD SVG 20010904//EN"
 "http://www.w3.org/TR/2001/REC-SVG-20010904/DTD/svg10.dtd">
<svg version="1.0" xmlns="http://www.w3.org/2000/svg"
 width="1280.000000pt" height="1280.000000pt" viewBox="0 0 1280.000000 1280.000000"
 preserveAspectRatio="xMidYMid meet">
<metadata>
Created by potrace 1.16, written by Peter Selinger 2001-2019
</metadata>
<g transform="translate(0.000000,1280.000000) scale(0.100000,-0.100000)"
fill="#000000" stroke="none">
<path d="M4784 11953 c-110 -115 -336 -350 -504 -523 -168 -173 -924 -954
-1680 -1735 -756 -781 -1508 -1557 -1672 -1724 -164 -167 -298 -307 -298 -311
0 -4 53 -58 118 -121 64 -63 218 -214 342 -336 l224 -222 -19 -23 c-46 -54 47
33 257 241 l217 215 233 -48 c128 -26 332 -70 453 -98 121 -28 234 -52 250
-55 28 -4 109 75 1428 1395 l1398 1399 -15 34 c-11 24 -14 27 -10 9 3 -18 2
-21 -4 -10 -11 18 -79 280 -162 630 l-61 254 238 241 c131 132 259 262 283
290 l45 49 -43 -37 -43 -38 -27 20 c-15 10 -188 175 -384 365 -196 190 -359
346 -361 346 -2 0 -94 -93 -203 -207z m164 102 c-13 -15 -33 -39 -46 -54 -12
-14 -28 -33 -35 -41 -30 -34 -57 -79 -57 -94 0 -9 -7 -16 -15 -16 -9 0 -19 -8
-22 -17 -4 -10 -16 -26 -27 -37 -12 -10 -20 -22 -18 -28 1 -5 -16 -26 -38 -47
-24 -22 -40 -46 -40 -60 0 -16 -4 -21 -15 -18 -8 4 -22 -4 -34 -18 -10 -14
-24 -25 -30 -25 -6 0 -11 -4 -11 -9 0 -5 -16 -26 -35 -47 -19 -20 -35 -40 -35
-45 0 -4 -8 -10 -18 -13 -10 -4 -26 -22 -35 -41 -9 -19 -23 -35 -31 -35 -8 0
-18 -9 -21 -20 -3 -11 -13 -20 -21 -20 -8 0 -14 -7 -14 -16 0 -17 -23 -44 -38
-44 -5 0 -17 -11 -26 -25 -9 -14 -44 -53 -76 -87 -33 -34 -60 -64 -60 -67 0
-12 -61 -70 -79 -76 -11 -3 -22 -14 -25 -23 -3 -10 -16 -24 -28 -32 -26 -18
-64 -56 -98 -99 -14 -17 -29 -31 -35 -31 -5 0 -21 -14 -35 -30 -50 -59 -88
-97 -105 -104 -9 -3 -15 -12 -12 -19 2 -6 -9 -23 -24 -37 -16 -13 -29 -30 -29
-38 0 -9 -7 -13 -20 -9 -11 3 -20 2 -20 -2 0 -4 -11 -13 -25 -19 -14 -6 -25
-16 -25 -22 0 -5 -16 -26 -35 -46 -19 -19 -35 -40 -35 -45 0 -5 -5 -9 -10 -9
-6 0 -22 -11 -36 -25 -14 -14 -29 -25 -34 -25 -6 0 -10 -7 -10 -16 0 -17 -130
-150 -175 -180 -14 -9 -25 -23 -25 -30 0 -8 -4 -14 -9 -14 -11 0 -23 -12 -66
-65 -38 -46 -94 -105 -101 -105 -7 0 -84 -82 -84 -91 0 -3 -13 -17 -29 -30
-16 -13 -28 -27 -25 -30 2 -4 -4 -10 -15 -14 -11 -3 -34 -23 -51 -43 -17 -20
-34 -40 -38 -44 -4 -4 -35 -34 -70 -67 -35 -34 -67 -61 -72 -61 -6 0 -10 -6
-10 -14 0 -16 -75 -96 -90 -96 -6 0 -10 -6 -10 -14 0 -7 -9 -16 -20 -19 -12
-3 -20 -14 -20 -26 0 -12 -5 -21 -11 -21 -12 0 -19 -7 -90 -87 -20 -22 -43
-43 -53 -46 -9 -4 -20 -17 -25 -29 -5 -13 -18 -30 -30 -38 -12 -8 -21 -22 -21
-32 0 -10 -7 -18 -15 -18 -25 0 -65 -31 -65 -50 0 -10 -9 -22 -20 -25 -11 -3
-20 -10 -20 -15 0 -5 -26 -36 -59 -69 -32 -33 -56 -62 -54 -65 2 -2 -12 -16
-31 -31 -20 -15 -36 -34 -36 -41 0 -8 -5 -14 -10 -14 -6 0 -16 -11 -22 -25 -7
-15 -17 -24 -25 -21 -8 3 -12 2 -9 -2 7 -11 -62 -84 -73 -77 -5 2 -11 -5 -14
-16 -4 -13 -10 -18 -17 -14 -9 5 -10 1 -5 -14 5 -15 2 -21 -9 -21 -9 0 -16 -7
-16 -15 0 -8 -7 -15 -15 -15 -9 0 -19 -10 -24 -23 -5 -13 -25 -34 -45 -48 -23
-16 -36 -32 -36 -47 0 -12 -7 -25 -16 -29 -23 -9 -72 -61 -79 -84 -4 -11 -13
-19 -21 -19 -8 0 -14 -6 -14 -12 0 -7 -16 -28 -35 -48 -86 -86 -235 -244 -235
-249 0 -3 -13 -15 -29 -26 -16 -10 -28 -22 -25 -26 2 -4 -4 -12 -13 -18 -10
-5 -17 -12 -15 -15 1 -3 2 -12 2 -18 0 -9 -4 -8 -10 2 -9 13 -12 13 -20 -2 -6
-10 -34 -33 -63 -52 -29 -19 -78 -59 -109 -89 -35 -32 -74 -59 -98 -66 -22 -6
-46 -21 -53 -31 -6 -11 -17 -20 -24 -20 -7 0 -13 -4 -13 -10 0 -5 -6 -10 -14
-10 -8 0 -22 -7 -30 -16 -9 -8 -16 -11 -16 -6 0 12 94 115 270 297 343 356
429 444 601 620 244 251 437 449 489 505 23 25 115 119 204 210 146 150 532
548 901 930 77 80 221 228 320 330 99 103 236 244 305 316 574 597 1132 1166
1137 1160 3 -2 -6 -16 -19 -31z"/>
<path d="M7361 11783 l-334 -335 217 -217 216 -217 -124 -554 -125 -555 1362
-1362 1362 -1362 295 68 c162 38 411 95 553 126 l259 58 211 -209 c117 -116
223 -219 237 -229 l25 -20 -19 23 -20 23 330 330 330 330 -2220 2219 c-1220
1221 -2219 2219 -2220 2219 -1 -1 -151 -152 -335 -336z m4309 -3662 c0 -9 -11
-6 -32 9 -18 11 -44 26 -58 32 -63 27 -93 44 -97 56 -3 6 -11 12 -19 12 -8 0
-14 5 -14 10 0 6 -9 10 -20 10 -11 0 -20 5 -20 10 0 6 -8 10 -18 10 -9 0 -42
20 -72 45 -30 25 -61 45 -67 45 -7 0 -13 7 -13 15 0 8 -9 15 -20 15 -11 0 -20
7 -20 15 0 8 -7 15 -15 15 -9 0 -18 7 -21 15 -4 8 -12 15 -20 15 -8 0 -14 4
-14 10 0 5 -3 9 -7 9 -22 -4 -32 4 -43 31 -7 17 -19 30 -26 30 -8 0 -14 5 -14
10 0 6 -5 10 -10 10 -6 0 -33 23 -60 50 -27 28 -54 50 -60 50 -6 0 -8 5 -5 10
3 6 1 10 -5 10 -14 0 -170 157 -170 171 0 5 -3 8 -7 7 -5 -1 -24 12 -43 30
-19 18 -38 32 -42 32 -5 0 -8 9 -8 20 0 14 -7 20 -21 20 -13 0 -19 5 -16 13 5
14 -27 50 -55 60 -10 3 -20 18 -24 32 -3 14 -11 25 -17 25 -13 0 -67 50 -67
62 0 15 -94 108 -108 108 -8 0 -12 6 -8 15 6 17 -35 62 -70 75 -13 5 -24 16
-24 25 0 9 -26 42 -57 74 -93 95 -173 181 -173 186 0 12 -41 45 -56 45 -11 0
-14 6 -9 20 5 15 2 20 -10 20 -10 0 -26 11 -37 25 -11 14 -32 32 -47 39 -15 8
-32 25 -39 38 -7 12 -31 31 -52 41 -22 10 -42 27 -45 38 -4 10 -13 19 -21 19
-8 0 -14 7 -14 16 0 20 -39 53 -62 54 -10 0 -20 10 -24 24 -4 16 -11 23 -21
19 -9 -4 -16 2 -20 16 -3 11 -8 21 -12 21 -4 0 -29 20 -55 45 -27 25 -53 45
-58 45 -5 0 -21 14 -35 30 -13 17 -31 30 -39 30 -7 0 -18 9 -24 19 -5 11 -25
28 -43 40 -18 11 -39 32 -47 46 -7 14 -18 25 -23 25 -5 0 -25 14 -44 30 -18
17 -38 30 -43 30 -5 0 -12 9 -15 20 -3 11 -14 20 -23 20 -10 0 -22 10 -27 22
-6 13 -24 32 -42 43 -18 11 -32 28 -33 38 0 11 -9 21 -20 24 -11 3 -20 9 -20
14 0 5 -7 9 -15 9 -8 0 -15 7 -15 15 0 20 -41 57 -57 51 -8 -3 -13 2 -13 13 0
18 -42 61 -60 61 -6 0 -10 6 -10 13 0 12 -56 67 -69 67 -11 0 -131 119 -131
130 0 6 -6 10 -14 10 -7 0 -19 14 -26 30 -7 17 -16 30 -21 30 -12 0 -49 32
-49 43 0 9 -25 37 -33 37 -2 0 -29 25 -61 55 -31 30 -63 55 -71 55 -9 0 -15
10 -15 25 0 16 -5 25 -13 23 -15 -3 -60 38 -70 65 -3 9 -13 17 -22 17 -8 0
-15 4 -15 10 0 5 -13 16 -30 25 -16 9 -30 22 -30 30 0 8 -5 15 -11 15 -5 0
-40 32 -77 72 -102 110 -153 158 -168 158 -8 0 -11 6 -7 15 3 11 -17 38 -61
82 -73 72 -97 110 -91 141 2 11 6 42 10 69 3 26 11 70 18 96 l11 49 1978
-1980 c1088 -1088 1978 -1984 1978 -1991z"/>
<path d="M1379 5958 c40 -42 51 -60 44 -72 -4 -8 -162 -172 -349 -363 -187
-191 -377 -388 -424 -436 l-83 -88 44 -45 c24 -24 49 -42 56 -40 7 3 12 0 10
-7 -1 -7 4 -11 11 -9 8 1 11 -1 8 -6 -3 -5 257 -265 577 -577 320 -313 681
-665 802 -784 121 -118 310 -303 420 -411 199 -194 457 -446 845 -825 113
-111 399 -389 635 -620 237 -231 575 -563 753 -739 l323 -319 419 424 418 424
-270 272 -271 271 58 265 c49 220 61 263 71 249 12 -16 13 -15 19 3 4 11 9 27
12 35 3 8 11 42 18 75 l13 60 -1403 1404 -1402 1403 -94 -20 c-52 -12 -212
-50 -355 -85 l-262 -64 -303 301 c-289 287 -472 462 -340 324z m-430 -1257
c30 -27 60 -47 67 -44 9 3 14 -2 14 -16 0 -12 7 -24 16 -28 15 -6 38 -23 97
-76 18 -16 44 -35 59 -43 15 -8 35 -28 43 -45 9 -16 27 -35 40 -41 13 -6 26
-19 28 -30 3 -11 10 -17 15 -14 5 3 15 -8 22 -24 7 -17 20 -30 29 -30 9 0 23
-15 32 -33 10 -21 26 -35 47 -42 18 -5 32 -13 32 -17 0 -7 29 -39 117 -130 9
-10 22 -18 30 -18 7 0 13 -9 13 -20 0 -11 5 -20 10 -20 13 0 72 -66 82 -91 4
-11 13 -19 19 -19 7 0 24 -12 40 -27 15 -16 34 -33 41 -39 7 -6 34 -34 60 -62
26 -29 52 -52 58 -52 6 0 8 -4 5 -10 -3 -5 -2 -10 4 -10 13 0 81 -67 81 -80 0
-5 9 -12 20 -15 11 -3 20 -13 20 -20 0 -8 12 -22 28 -32 15 -10 31 -23 35 -30
4 -7 15 -13 22 -13 8 0 15 -5 15 -10 0 -6 10 -15 23 -20 12 -5 16 -9 10 -9
-22 -1 -14 -29 10 -35 12 -3 32 -14 44 -26 12 -11 26 -20 31 -20 5 0 14 -11
20 -25 6 -14 16 -25 21 -25 5 0 42 -31 81 -70 39 -38 76 -70 81 -70 6 0 8 -4
4 -9 -5 -10 78 -101 93 -101 4 0 18 -16 31 -35 13 -20 26 -33 29 -30 9 9 32
-17 32 -36 0 -11 7 -19 15 -19 18 0 75 -52 75 -68 0 -6 5 -12 11 -14 15 -5 67
-51 142 -125 35 -35 71 -63 80 -63 10 0 14 -6 11 -14 -6 -16 60 -66 88 -66 11
0 18 -8 18 -20 0 -18 40 -70 54 -70 3 0 19 -12 35 -28 80 -74 101 -92 111 -92
5 0 10 -5 10 -10 0 -13 57 -70 70 -70 6 0 10 -6 10 -14 0 -8 4 -16 9 -18 28
-10 91 -74 92 -92 0 -11 3 -15 6 -8 8 20 19 14 38 -22 14 -25 23 -32 38 -28
12 3 18 1 14 -5 -4 -5 5 -16 18 -23 14 -7 25 -22 25 -32 0 -10 11 -24 25 -30
14 -6 25 -16 25 -22 0 -6 7 -20 16 -31 13 -17 16 -18 24 -5 8 12 10 11 10 -7
0 -16 6 -23 20 -23 11 0 20 -5 20 -11 0 -14 41 -48 58 -49 9 0 11 -8 8 -22 -3
-13 -3 -17 0 -10 4 9 16 2 40 -22 19 -19 34 -40 34 -47 0 -6 6 -9 13 -6 14 5
42 -21 70 -66 10 -15 23 -27 31 -27 13 0 48 -36 146 -148 25 -29 53 -55 63
-58 10 -3 22 -16 27 -30 6 -15 15 -22 25 -18 8 3 15 1 15 -5 0 -6 16 -25 35
-42 19 -18 35 -37 35 -44 0 -6 11 -18 25 -25 14 -7 25 -16 25 -20 0 -4 18 -26
40 -50 22 -24 40 -46 40 -48 0 -5 16 -23 58 -66 12 -13 22 -28 22 -35 0 -6 7
-11 15 -11 8 0 15 -7 15 -15 0 -8 5 -15 10 -15 6 0 10 -9 10 -20 0 -11 7 -20
15 -20 8 0 15 -6 15 -14 0 -8 11 -28 25 -44 14 -17 25 -34 25 -38 0 -5 19 -30
43 -55 79 -87 81 -94 7 -24 -111 105 -406 392 -652 634 -120 118 -222 217
-228 221 -5 3 -115 109 -242 235 -259 255 -586 575 -903 885 -116 112 -314
305 -440 430 -127 124 -325 317 -440 430 -903 881 -1035 1012 -1029 1022 10
16 30 7 83 -41z"/>
<path d="M11131 5654 l-352 -355 -57 11 c-31 7 -196 43 -367 81 -170 37 -344
75 -385 84 l-74 16 -1352 -1352 -1351 -1351 9 -42 c5 -22 51 -224 103 -447 52
-223 95 -412 95 -420 0 -8 -34 -48 -75 -89 -56 -55 -74 -68 -72 -52 0 11 4 19
7 17 3 -2 6 5 6 16 0 13 -68 -48 -213 -193 -117 -117 -213 -214 -213 -216 0
-1 10 4 23 13 13 8 27 12 30 8 4 -3 17 2 29 13 15 12 13 8 -5 -12 l-28 -31 38
-33 c21 -18 206 -197 411 -398 l373 -365 125 124 c68 68 124 128 124 133 0 4
-8 2 -17 -5 -17 -13 -17 -13 0 7 9 11 17 28 17 37 0 9 5 17 10 17 6 0 10 9 10
20 0 11 9 29 19 39 11 11 17 22 14 25 -3 3 2 12 11 21 9 9 14 21 11 26 -4 5
-1 9 4 9 6 0 11 7 11 17 0 9 3 13 7 10 10 -11 33 13 33 34 0 11 5 19 10 19 6
0 10 9 10 19 0 11 9 23 20 26 11 3 20 14 20 23 0 9 10 29 23 44 52 61 57 69
57 76 0 7 22 32 160 180 28 29 50 57 50 62 0 5 6 7 13 5 6 -2 26 11 42 30 52
60 129 140 155 160 14 11 33 32 43 47 10 16 24 28 32 28 8 0 15 4 15 9 0 5 8
12 18 15 9 3 23 19 30 35 7 16 22 31 32 34 11 3 28 19 37 36 10 17 25 33 34
36 8 3 21 22 29 43 7 20 15 31 17 25 7 -19 21 -16 28 7 8 25 74 96 87 92 5 -1
7 2 4 7 -6 9 48 61 62 61 4 0 12 8 17 18 29 53 52 81 67 86 10 2 21 17 24 35
4 16 9 30 13 29 17 -2 31 3 31 10 0 9 43 62 92 114 15 15 29 36 33 47 3 10 17
24 30 31 14 7 25 19 25 25 0 7 10 24 23 38 12 15 32 40 45 57 13 16 30 30 38
30 8 0 14 4 14 10 0 5 14 23 30 38 17 16 30 34 30 41 0 6 6 11 14 11 8 0 27
14 43 32 52 59 125 128 135 128 6 0 8 6 6 13 -3 6 4 20 14 30 10 9 18 12 18 6
0 -6 7 -4 15 5 8 8 15 20 15 26 0 7 7 9 17 6 10 -4 14 -4 11 0 -4 4 6 19 22
34 17 16 30 33 30 39 0 6 6 11 14 11 8 0 28 16 45 35 17 19 35 35 41 35 5 0
10 6 10 14 0 8 9 17 19 21 11 3 23 15 26 26 4 10 11 17 16 14 5 -4 12 1 15 9
3 9 10 16 16 16 16 0 38 27 38 47 0 14 2 15 9 4 7 -11 18 -6 50 28 23 23 41
47 41 52 0 5 6 9 13 9 6 0 20 14 29 30 9 17 25 30 35 30 11 0 26 15 37 35 11
21 27 35 38 35 10 0 18 7 18 15 0 8 7 15 15 15 8 0 15 4 15 10 0 16 42 60 57
60 8 0 17 8 20 17 4 10 31 40 60 67 29 28 53 56 53 63 0 7 7 13 15 13 8 0 15
7 15 15 0 8 6 15 13 15 7 0 33 23 57 51 77 88 90 100 100 94 6 -3 10 0 10 8 0
18 75 104 98 111 9 3 28 22 41 41 13 19 29 35 36 35 6 0 18 11 25 25 7 14 19
25 27 25 7 0 19 11 25 25 6 14 18 25 26 25 14 0 72 58 72 73 0 4 5 7 11 7 6 0
24 14 39 30 15 17 33 30 39 30 6 0 11 5 11 11 0 5 5 7 10 4 6 -3 13 1 16 9 3
9 11 16 18 16 6 0 19 12 30 28 10 15 36 39 57 54 21 15 39 35 39 43 0 8 8 15
18 15 9 0 33 18 52 40 19 22 40 40 48 40 7 0 25 12 39 26 14 14 48 39 74 56
27 16 49 34 49 39 0 5 6 9 13 9 6 0 23 12 36 25 13 14 32 25 43 25 10 0 16 5
13 10 -3 6 0 10 7 10 7 0 26 11 42 25 17 14 35 24 42 21 6 -2 22 6 34 19 13
14 26 22 30 20 4 -2 16 2 26 10 18 14 -2 36 -327 357 -286 283 -435 436 -385
396 13 -11 61 60 75 112 13 51 30 140 26 140 -1 0 -161 -160 -354 -356z"/>
</g>
</svg>
